<svg width="24" height="24" viewBox="0 0 24 24" fill="none" xmlns="http://www.w3.org/2000/svg">
<path d="M10.7178 6.86283L14.9998 16.0008C12.8328 16.0008 12.1738 14.8578 9.91278 13.7148C8.10378 12.8008 5.57978 12.9528 4.82578 13.1438L7.85678 11.0008C8.16578 10.7828 8.31978 10.6738 8.36878 10.5078C8.41878 10.3418 8.34878 10.1658 8.20878 9.81483L7.78478 8.74683C7.62678 8.34683 7.54678 8.14683 7.40378 8.00283C7.3537 7.95243 7.29839 7.90751 7.23878 7.86883C7.06878 7.75683 6.85678 7.71883 6.43378 7.64483L3.18378 7.06783C2.81883 6.99636 2.49592 6.7859 2.28319 6.48087C2.07046 6.17584 1.98455 5.8001 2.04358 5.43294C2.10261 5.06577 2.30197 4.73589 2.59959 4.51292C2.89722 4.28994 3.26982 4.19131 3.63878 4.23783L8.03378 4.87283C8.82578 4.98683 9.22178 5.04383 9.55178 5.23283C9.68916 5.31146 9.81672 5.40613 9.93178 5.51483C10.2088 5.77583 10.3788 6.13783 10.7178 6.86283Z" stroke="#0D0D0D" stroke-width="1.5" stroke-linecap="round" stroke-linejoin="round"/>
<path d="M19 13C20.6569 13 22 11.6569 22 10C22 8.34315 20.6569 7 19 7C17.3431 7 16 8.34315 16 10C16 11.6569 17.3431 13 19 13Z" stroke="#0D0D0D" stroke-width="1.5" stroke-linecap="round" stroke-linejoin="round"/>
<path d="M2 18.0858C3.056 14.5548 7.769 16.1758 11.5 18.0858C15.232 19.9968 19 21.2128 21 18.0858" stroke="#0D0D0D" stroke-width="1.5" stroke-linecap="round" stroke-linejoin="round"/>
</svg>
