<svg width="24" height="24" viewBox="0 0 24 24" fill="none" xmlns="http://www.w3.org/2000/svg">
<path d="M18.75 0.750006C19.1291 0.748938 19.4945 0.891439 19.7728 1.14885C20.0511 1.40626 20.2216 1.75949 20.25 2.13751V21.75C20.2511 22.1291 20.1086 22.4945 19.8512 22.7728C19.5937 23.0511 19.2405 23.2216 18.8625 23.25H5.25001C4.87093 23.2511 4.5055 23.1086 4.22722 22.8512C3.94894 22.5937 3.77844 22.2405 3.75001 21.8625V2.25001C3.74894 1.87093 3.89144 1.5055 4.14885 1.22722C4.40626 0.948936 4.75949 0.778436 5.13751 0.750006H5.25001H18.75ZM18.75 8.25001H5.25001V21.75H18.75V8.25001ZM7.50001 9.75001C7.69892 9.75001 7.88968 9.82902 8.03034 9.96968C8.17099 10.1103 8.25001 10.3011 8.25001 10.5C8.25001 10.6989 8.17099 10.8897 8.03034 11.0303C7.88968 11.171 7.69892 11.25 7.50001 11.25C7.30109 11.25 7.11033 11.171 6.96968 11.0303C6.82902 10.8897 6.75001 10.6989 6.75001 10.5C6.75001 10.3011 6.82902 10.1103 6.96968 9.96968C7.11033 9.82902 7.30109 9.75001 7.50001 9.75001ZM18.75 2.25001H5.25001V6.75001H18.75V2.25001ZM7.50001 3.75001C7.69892 3.75001 7.88968 3.82902 8.03034 3.96968C8.17099 4.11033 8.25001 4.30109 8.25001 4.50001C8.25001 4.69892 8.17099 4.88968 8.03034 5.03034C7.88968 5.17099 7.69892 5.25001 7.50001 5.25001C7.30109 5.25001 7.11033 5.17099 6.96968 5.03034C6.82902 4.88968 6.75001 4.69892 6.75001 4.50001C6.75001 4.30109 6.82902 4.11033 6.96968 3.96968C7.11033 3.82902 7.30109 3.75001 7.50001 3.75001Z" fill="#4B5563"/>
</svg>
