<svg width="24" height="24" viewBox="0 0 24 24" fill="none" xmlns="http://www.w3.org/2000/svg">
<path d="M10.7197 6.86283L15.0017 16.0008C12.8347 16.0008 12.1757 14.8578 9.91474 13.7148C8.10574 12.8008 5.58174 12.9528 4.82774 13.1438L7.85874 11.0008C8.16774 10.7828 8.32174 10.6738 8.37074 10.5078C8.42074 10.3418 8.35074 10.1658 8.21074 9.81483L7.78674 8.74683C7.62874 8.34683 7.54874 8.14683 7.40574 8.00283C7.35565 7.95243 7.30034 7.90751 7.24074 7.86883C7.07074 7.75683 6.85874 7.71883 6.43574 7.64483L3.18574 7.06783C2.82079 6.99636 2.49788 6.7859 2.28514 6.48087C2.07241 6.17584 1.9865 5.8001 2.04553 5.43294C2.10456 5.06577 2.30392 4.73589 2.60155 4.51292C2.89917 4.28994 3.27177 4.19131 3.64074 4.23783L8.03574 4.87283C8.82774 4.98683 9.22374 5.04383 9.55374 5.23283C9.69112 5.31146 9.81868 5.40613 9.93374 5.51483C10.2107 5.77583 10.3807 6.13783 10.7197 6.86283Z" stroke="#4B5563" stroke-width="1.5" stroke-linecap="round" stroke-linejoin="round"/>
<path d="M19 13C20.6569 13 22 11.6569 22 10C22 8.34315 20.6569 7 19 7C17.3431 7 16 8.34315 16 10C16 11.6569 17.3431 13 19 13Z" stroke="#4B5563" stroke-width="1.5" stroke-linecap="round" stroke-linejoin="round"/>
<path d="M2 18.0858C3.056 14.5548 7.769 16.1758 11.5 18.0858C15.232 19.9968 19 21.2128 21 18.0858" stroke="#4B5563" stroke-width="1.5" stroke-linecap="round" stroke-linejoin="round"/>
</svg>
