<svg width="24" height="24" viewBox="0 0 24 24" fill="none" xmlns="http://www.w3.org/2000/svg">
<path d="M11.9997 15.25C12.7297 15.25 13.4298 15.54 13.946 16.0562C14.4622 16.5724 14.7522 17.2725 14.7522 18.0025C14.7522 18.7325 14.4622 19.4326 13.946 19.9488C13.4298 20.465 12.7297 20.755 11.9997 20.755C11.2697 20.755 10.5696 20.465 10.0534 19.9488C9.53718 19.4326 9.24719 18.7325 9.24719 18.0025C9.24719 17.2725 9.53718 16.5724 10.0534 16.0562C10.5696 15.54 11.2697 15.25 11.9997 15.25ZM11.9997 16.75C11.6675 16.75 11.3489 16.882 11.114 17.1168C10.8791 17.3517 10.7472 17.6703 10.7472 18.0025C10.7472 18.3347 10.8791 18.6533 11.114 18.8882C11.3489 19.123 11.6675 19.255 11.9997 19.255C12.3319 19.255 12.6504 19.123 12.8853 18.8882C13.1202 18.6533 13.2522 18.3347 13.2522 18.0025C13.2522 17.6703 13.1202 17.3517 12.8853 17.1168C12.6504 16.882 12.3319 16.75 11.9997 16.75ZM11.9997 11.2525C13.2508 11.2528 14.4772 11.6008 15.542 12.2577C16.6068 12.9146 17.4681 13.8545 18.0297 14.9725L16.8972 16.105C16.5153 15.1162 15.8431 14.2661 14.969 13.6666C14.0948 13.0671 13.0597 12.7463 11.9997 12.7463C10.9397 12.7463 9.90457 13.0671 9.03041 13.6666C8.15626 14.2661 7.48404 15.1162 7.10219 16.105L5.96969 14.9725C6.5313 13.8545 7.39258 12.9146 8.45737 12.2577C9.52216 11.6008 10.7486 11.2528 11.9997 11.2525ZM11.9997 7.255C15.7347 7.255 19.0272 9.16 20.9547 12.055L19.8672 13.135C19.0386 11.7936 17.8808 10.6864 16.5038 9.91845C15.1268 9.15052 13.5763 8.74741 11.9997 8.74741C10.423 8.74741 8.87256 9.15052 7.49556 9.91845C6.11857 10.6864 4.96078 11.7936 4.13219 13.135L3.04469 12.0475C4.02521 10.5705 5.35613 9.35913 6.91868 8.52158C8.48123 7.68403 10.2268 7.24632 11.9997 7.2475V7.255ZM11.9997 3.25C16.8372 3.25 21.1347 5.575 23.8197 9.175L22.7472 10.255C21.5222 8.54857 19.9085 7.15835 18.0396 6.19936C16.1707 5.24037 14.1003 4.74019 11.9997 4.74019C9.89909 4.74019 7.82869 5.24037 5.95978 6.19936C4.09087 7.15835 2.47717 8.54857 1.25219 10.255L0.179688 9.1825C2.86469 5.5825 7.15469 3.2575 11.9997 3.2575V3.25Z" fill="#4B5563"/>
</svg>
