<svg width="24" height="24" viewBox="0 0 24 24" fill="none" xmlns="http://www.w3.org/2000/svg">
<path d="M19.5 14.25C19.5 14.4489 19.421 14.6397 19.2803 14.7803C19.1397 14.921 18.9489 15 18.75 15C18.5511 15 18.3603 14.921 18.2197 14.7803C18.079 14.6397 18 14.4489 18 14.25C18 14.0511 18.079 13.8603 18.2197 13.7197C18.3603 13.579 18.5511 13.5 18.75 13.5C18.9489 13.5 19.1397 13.579 19.2803 13.7197C19.421 13.8603 19.5 14.0511 19.5 14.25ZM5.25 13.5C5.05109 13.5 4.86032 13.579 4.71967 13.7197C4.57902 13.8603 4.5 14.0511 4.5 14.25C4.5 14.4489 4.57902 14.6397 4.71967 14.7803C4.86032 14.921 5.05109 15 5.25 15C5.44891 15 5.63968 14.921 5.78033 14.7803C5.92098 14.6397 6 14.4489 6 14.25C6 14.0511 5.92098 13.8603 5.78033 13.7197C5.63968 13.579 5.44891 13.5 5.25 13.5ZM20.775 9.75L21.0825 10.59C21.5223 10.9373 21.8782 11.3793 22.1236 11.8831C22.369 12.3869 22.4977 12.9396 22.5 13.5V20.25C22.5 20.6478 22.342 21.0294 22.0607 21.3107C21.7794 21.592 21.3978 21.75 21 21.75H19.5C19.1022 21.75 18.7206 21.592 18.4393 21.3107C18.158 21.0294 18 20.6478 18 20.25V18.75H6V20.25C6 20.6478 5.84196 21.0294 5.56066 21.3107C5.27936 21.592 4.89782 21.75 4.5 21.75H3C2.60218 21.75 2.22064 21.592 1.93934 21.3107C1.65804 21.0294 1.5 20.6478 1.5 20.25V13.5C1.5 12.3225 2.0625 11.28 2.9175 10.59L3.225 9.75H1.5V8.25H3.75V8.3625L5.115 4.725C5.22182 4.4391 5.41332 4.19259 5.66391 4.01837C5.91451 3.84416 6.21229 3.75053 6.5175 3.75H17.4825C18.105 3.75 18.6675 4.14 18.885 4.725L20.25 8.3625V8.25H22.5V9.75H20.775ZM4.5 18.75H3V20.25H4.5V18.75ZM21 18.75H19.5V20.25H21V18.75ZM21 17.25V13.5C21 12.9033 20.7629 12.331 20.341 11.909C19.919 11.4871 19.3467 11.25 18.75 11.25H5.25C4.65326 11.25 4.08097 11.4871 3.65901 11.909C3.23705 12.331 3 12.9033 3 13.5V17.25H21ZM18.75 9.75H19.17L17.475 5.25H6.5175L4.83 9.75H18.75ZM7.5 15H16.5V13.5H7.5V15Z" fill="#4B5563"/>
</svg>
