<svg width="24" height="24" viewBox="0 0 24 24" fill="none" xmlns="http://www.w3.org/2000/svg">
<path d="M6.75 21.75V20.25H8.25V18.75H4.5C3.53338 18.7509 2.60373 18.3786 1.90502 17.7106C1.20632 17.0427 0.792533 16.1307 0.750002 15.165V6C0.749066 5.03338 1.12142 4.10373 1.78939 3.40502C2.45735 2.70632 3.36931 2.29253 4.335 2.25H19.5C20.4666 2.24907 21.3963 2.62142 22.095 3.28939C22.7937 3.95735 23.2075 4.86931 23.25 5.835V15C23.2509 15.9666 22.8786 16.8963 22.2106 17.595C21.5427 18.2937 20.6307 18.7075 19.665 18.75H15.75V20.25H17.25V21.75H6.75ZM14.25 18.75H9.75V20.25H14.25V18.75ZM19.5 3.75H4.5C3.92593 3.74897 3.37318 3.9674 2.9549 4.36059C2.53662 4.75377 2.28445 5.29197 2.25 5.865V15C2.24897 15.5741 2.4674 16.1268 2.86059 16.5451C3.25377 16.9634 3.79197 17.2156 4.365 17.25H19.5C20.0741 17.251 20.6268 17.0326 21.0451 16.6394C21.4634 16.2462 21.7156 15.708 21.75 15.135V6C21.751 5.42593 21.5326 4.87318 21.1394 4.4549C20.7462 4.03662 20.208 3.78444 19.635 3.75H19.5Z" fill="#4B5563"/>
</svg>
