<svg width="24" height="24" viewBox="0 0 24 24" fill="none" xmlns="http://www.w3.org/2000/svg">
<path d="M12.7491 0.75V3.7725L15.7716 2.0325L16.5216 3.33L12.7491 5.505V10.7025L17.2491 8.1V3.75H18.7491V7.2375L21.3666 5.7225L22.1166 7.0275L19.4991 8.535L22.5216 10.2825L21.7716 11.58L17.9991 9.405L13.4991 12L17.9991 14.595L21.7716 12.42L22.5216 13.7175L19.4991 15.465L22.1166 16.9725L21.3666 18.2775L18.7491 16.7625V20.25H17.2491V15.9L12.7491 13.2975V18.495L16.5216 20.67L15.7716 21.9675L12.7491 20.2275V23.25H11.2491V20.2275L8.22656 21.9675L7.47656 20.67L11.2491 18.495V13.2975L6.74906 15.9V20.25H5.24906V16.7625L2.63156 18.2775L1.88156 16.9725L4.49906 15.465L1.47656 13.7175L2.22656 12.42L5.99906 14.595L10.4991 12L5.99906 9.405L2.22656 11.58L1.47656 10.2825L4.49906 8.535L1.88156 7.0275L2.63156 5.7225L5.24906 7.2375V3.75H6.74906V8.1L11.2491 10.7025V5.505L7.47656 3.33L8.22656 2.0325L11.2491 3.7725V0.75H12.7491Z" fill="#4B5563"/>
</svg>
