<svg width="24" height="24" viewBox="0 0 24 24" fill="none" xmlns="http://www.w3.org/2000/svg">
<path d="M19.5 0.750002C19.9925 0.750002 20.4801 0.846998 20.9351 1.03545C21.39 1.22391 21.8034 1.50013 22.1516 1.84835C22.4999 2.19657 22.7761 2.60997 22.9645 3.06494C23.153 3.51991 23.25 4.00754 23.25 4.5C23.25 9.2925 22.05 14.3925 20.25 15.525V23.25H18.75V15.525C16.98 14.415 15.795 9.4725 15.75 4.755V4.335C15.7925 3.36931 16.2063 2.45735 16.905 1.78939C17.6037 1.12142 18.5334 0.749066 19.5 0.750002ZM12.75 0.750002V14.34C14.49 14.7525 15.75 16.59 15.75 18.75C15.75 21.2025 14.115 23.25 12 23.25C9.885 23.25 8.25 21.2025 8.25 18.75C8.25 16.5975 9.51 14.7525 11.25 14.34V0.750002H12.75ZM1.5 0.750002H2.25C5.6025 0.750002 7.4475 5.5275 7.5 14.625V15.75H3V23.25H1.5V0.750002ZM12 15.75C10.8 15.75 9.75 17.0625 9.75 18.75C9.75 20.4375 10.8 21.75 12 21.75C13.2 21.75 14.25 20.4375 14.25 18.75C14.25 17.0625 13.2 15.75 12 15.75ZM3 2.43V14.25H6L5.985 13.53L5.9625 12.8175C5.7525 6.87 4.68 3.465 3.165 2.52L3.075 2.475L3 2.43ZM17.25 4.365V4.7325C17.2875 7.9725 18.0225 11.58 18.75 13.275V2.3775C18.3321 2.52435 17.9668 2.79128 17.7 3.14484C17.4332 3.4984 17.2766 3.92285 17.25 4.365ZM20.25 2.3775V13.275C20.9925 11.5425 21.75 7.8 21.75 4.5C21.7502 4.03451 21.6061 3.58041 21.3375 3.20027C21.0688 2.82012 20.6889 2.53266 20.25 2.3775Z" fill="#4B5563"/>
</svg>
