<svg width="22" height="22" viewBox="0 0 22 22" fill="none" xmlns="http://www.w3.org/2000/svg">
<path d="M11.0026 18.7878C11.5984 18.7878 12.2529 18.7722 12.9258 18.7474C13.1623 18.7383 13.2796 18.7337 13.4822 18.7135C16.487 18.4092 19.0482 15.749 19.2389 12.7359C19.2526 12.5324 19.2526 12.3509 19.2526 11.9888C19.2526 11.9183 19.2526 11.8825 19.2508 11.8532C19.2363 11.6311 19.1416 11.4218 18.9842 11.2645C18.8268 11.1071 18.6176 11.0124 18.3955 10.9979C18.3653 10.9961 18.3314 10.9961 18.2599 10.9961M3.74535 10.9961C3.67477 10.9961 3.63994 10.9961 3.60969 10.9979C3.3876 11.0124 3.17836 11.1071 3.02099 11.2645C2.86362 11.4218 2.76888 11.6311 2.75444 11.8532C2.7526 11.8825 2.7526 11.9173 2.7526 11.9888C2.7526 12.3509 2.7526 12.5324 2.76544 12.7359C2.93044 15.3429 4.8701 17.6859 7.33594 18.4669M5.5026 18.3294L4.58594 20.1628M16.5026 18.3294L17.4193 20.1628M1.83594 10.9961H12.8359M20.1693 10.9961H16.5026" stroke="#392B20" stroke-width="1.375" stroke-linecap="round"/>
<path d="M2.06641 11.9134C2.06641 12.0957 2.13884 12.2706 2.26777 12.3995C2.3967 12.5285 2.57157 12.6009 2.75391 12.6009C2.93624 12.6009 3.11111 12.5285 3.24004 12.3995C3.36897 12.2706 3.44141 12.0957 3.44141 11.9134H2.06641ZM5.82107 8.01024L5.18124 8.26233C5.21508 8.34789 5.26576 8.42579 5.33026 8.4914C5.39477 8.55702 5.47178 8.60902 5.55675 8.64433C5.64172 8.67963 5.73292 8.69752 5.82493 8.69693C5.91694 8.69635 6.00789 8.6773 6.09241 8.64091L5.82107 8.01024ZM11.2844 5.65716L11.5567 6.28966C11.7207 6.21899 11.8508 6.08723 11.9195 5.92229C11.9881 5.75735 11.9898 5.57218 11.9242 5.40599L11.2844 5.65716ZM3.44141 11.9134V4.01633H2.06641V11.9134H3.44141ZM4.94016 2.51758C5.55341 2.51758 6.10432 2.89066 6.33166 3.45991L7.60857 2.94841C7.39536 2.41521 7.02728 1.95902 6.55182 1.63699C6.07636 1.31495 5.51533 1.14274 4.94107 1.14258L4.94016 2.51758ZM3.44141 4.01633C3.44141 3.18858 4.11241 2.51758 4.94016 2.51758L4.94107 1.14258C4.17891 1.14258 3.44704 1.44535 2.90811 1.98428C2.36918 2.52321 2.06641 3.25416 2.06641 4.01633H3.44141ZM6.33166 3.45991L6.67999 4.32891L7.95599 3.81833L7.60857 2.94841L6.33166 3.45991ZM6.45999 7.75816C6.22949 7.17045 6.23409 6.51657 6.47282 5.93216L5.19866 5.41424C4.82683 6.32599 4.82118 7.34588 5.18124 8.26233L6.45999 7.75816ZM11.0131 5.02649L5.54882 7.37866L6.09241 8.64091L11.5557 6.28874L11.0131 5.02649ZM9.42907 4.64241C9.99924 4.88624 10.4237 5.34733 10.6455 5.90924L11.9242 5.40599C11.7495 4.95513 11.4867 4.54269 11.1512 4.19454C10.8156 3.84639 10.414 3.56861 9.96991 3.37741L9.42907 4.64241ZM6.47282 5.93216C6.68821 5.39102 7.09642 4.94977 7.61866 4.69191L7.01732 3.45624C6.19013 3.86196 5.54232 4.55941 5.19866 5.41424L6.47282 5.93216ZM7.61866 4.69191C7.89899 4.55347 8.206 4.47744 8.51854 4.46905C8.83108 4.46066 9.14172 4.5192 9.42907 4.64241L9.96991 3.37741C9.5012 3.17694 8.9947 3.08103 8.4851 3.09447C7.97549 3.10792 7.47481 3.23133 7.01732 3.45624L7.61866 4.69191Z" fill="#392B20"/>
</svg>
