<svg width="22" height="22" viewBox="0 0 22 22" fill="none" xmlns="http://www.w3.org/2000/svg">
<path d="M17.875 9.625H8.9375V14.8078H7.98557V13.0461C7.98447 12.048 7.58747 11.091 6.88167 10.3852C6.17588 9.6794 5.21893 9.28238 4.22078 9.28125H2.0625V6.53125H0.6875V21.3125H2.0625V19.261L19.9375 19.404V21.3125H21.3125V13.0625C21.3115 12.1511 20.949 11.2774 20.3046 10.633C19.6601 9.98852 18.7864 9.62602 17.875 9.625ZM2.0625 10.6562H4.22078C4.85437 10.657 5.46181 10.909 5.90982 11.357C6.35784 11.805 6.60985 12.4125 6.61057 13.046V14.8078H2.0625V10.6562ZM19.9375 18.029L2.0625 17.886V16.1828H19.9375V18.029ZM19.9375 14.8078H10.3125V11H17.875C18.4218 11.0006 18.9461 11.2181 19.3327 11.6048C19.7194 11.9914 19.9369 12.5157 19.9375 13.0625V14.8078Z" fill="#392B20"/>
</svg>
