<svg width="22" height="22" viewBox="0 0 22 22" fill="none" xmlns="http://www.w3.org/2000/svg">
<path d="M6.1875 2.75V4.8125M15.8125 2.75V4.8125M2.75 17.1875V6.875C2.75 6.32799 2.9673 5.80339 3.35409 5.41659C3.74089 5.0298 4.26549 4.8125 4.8125 4.8125H17.1875C17.7345 4.8125 18.2591 5.0298 18.6459 5.41659C19.0327 5.80339 19.25 6.32799 19.25 6.875V17.1875M2.75 17.1875C2.75 17.7345 2.9673 18.2591 3.35409 18.6459C3.74089 19.0327 4.26549 19.25 4.8125 19.25H17.1875C17.7345 19.25 18.2591 19.0327 18.6459 18.6459C19.0327 18.2591 19.25 17.7345 19.25 17.1875M2.75 17.1875V10.3125C2.75 9.76549 2.9673 9.24089 3.35409 8.85409C3.74089 8.4673 4.26549 8.25 4.8125 8.25H17.1875C17.7345 8.25 18.2591 8.4673 18.6459 8.85409C19.0327 9.24089 19.25 9.76549 19.25 10.3125V17.1875" stroke="#4B5563" stroke-linecap="round" stroke-linejoin="round"/>
</svg>
