<svg width="18" height="18" viewBox="0 0 18 18" fill="none" xmlns="http://www.w3.org/2000/svg">
<path d="M15.376 1.90842H13.438V0.500415C13.438 0.238415 13.208 -0.0115847 12.938 0.000415267C12.8062 0.00297534 12.6805 0.0564756 12.5873 0.149695C12.4941 0.242914 12.4406 0.368609 12.438 0.500415V1.90842H5.438V0.500415C5.438 0.238415 5.208 -0.0115847 4.938 0.000415267C4.80619 0.00297534 4.6805 0.0564756 4.58728 0.149695C4.49406 0.242914 4.44056 0.368609 4.438 0.500415V1.90842H2.5C1.8372 1.90921 1.20178 2.17286 0.73311 2.64153C0.264441 3.11019 0.000793929 3.74562 0 4.40842V15.4084C0 16.7874 1.122 17.9084 2.5 17.9084H15.375C16.754 17.9084 17.875 16.7874 17.875 15.4084V4.40842C17.875 3.74555 17.6117 3.10981 17.1431 2.641C16.6745 2.17219 16.0389 1.90868 15.376 1.90842ZM2.5 2.90842H4.438V3.50042C4.438 3.76242 4.668 4.01242 4.938 4.00042C5.209 3.98842 5.438 3.78042 5.438 3.50042V2.90842H12.438V3.50042C12.438 3.76242 12.668 4.01242 12.938 4.00042C13.209 3.98842 13.438 3.78042 13.438 3.50042V2.90842H15.375C16.202 2.90842 16.875 3.58142 16.875 4.40842V5.99242H1V4.40842C1 3.58142 1.673 2.90842 2.5 2.90842ZM15.376 16.9084H2.5C1.673 16.9084 1 16.2354 1 15.4084V6.99242H16.875V15.4084C16.875 15.8061 16.7171 16.1874 16.436 16.4687C16.1549 16.75 15.7737 16.9081 15.376 16.9084Z" fill="black"/>
</svg>
