<svg width="22" height="22" viewBox="0 0 22 22" fill="none" xmlns="http://www.w3.org/2000/svg">
<g clip-path="url(#clip0_388_5498)">
<path d="M11.0004 1.22266C9.06658 1.22266 7.17614 1.79611 5.5682 2.87051C3.96025 3.94491 2.70701 5.47199 1.96695 7.25864C1.22689 9.0453 1.03326 11.0113 1.41054 12.908C1.78782 14.8047 2.71906 16.5469 4.08651 17.9144C5.45395 19.2818 7.19619 20.2131 9.09289 20.5903C10.9896 20.9676 12.9556 20.774 14.7422 20.0339C16.5289 19.2939 18.056 18.0406 19.1304 16.4327C20.2048 14.8247 20.7782 12.9343 20.7782 11.0004C20.7782 8.40721 19.7481 5.92019 17.9144 4.0865C16.0807 2.25281 13.5937 1.22266 11.0004 1.22266ZM11.0004 19.556C9.30831 19.556 7.65418 19.0542 6.24723 18.1141C4.84027 17.174 3.74369 15.8378 3.09614 14.2745C2.44859 12.7112 2.27916 10.9909 2.60928 9.33133C2.93939 7.67171 3.75423 6.14726 4.95075 4.95074C6.14726 3.75423 7.67172 2.93939 9.33133 2.60927C10.9909 2.27915 12.7112 2.44858 14.2745 3.09613C15.8378 3.74368 17.174 4.84027 18.1141 6.24722C19.0542 7.65418 19.556 9.30831 19.556 11.0004C19.556 13.2695 18.6546 15.4456 17.0501 17.0501C15.4457 18.6546 13.2695 19.556 11.0004 19.556Z" fill="#4B5563"/>
<path d="M11.5621 11.2451V6.5701C11.5621 6.40802 11.4977 6.25258 11.3831 6.13797C11.2685 6.02337 11.113 5.95898 10.951 5.95898C10.7889 5.95898 10.6334 6.02337 10.5188 6.13797C10.4042 6.25258 10.3398 6.40802 10.3398 6.5701V11.899L13.9454 14.3434C14.0118 14.3934 14.0877 14.4293 14.1685 14.4489C14.2492 14.4685 14.3331 14.4714 14.4151 14.4575C14.497 14.4436 14.5752 14.4131 14.645 14.3679C14.7147 14.3228 14.7745 14.2638 14.8207 14.1947C14.8669 14.1256 14.8986 14.0479 14.9137 13.9661C14.9288 13.8844 14.9271 13.8005 14.9086 13.7194C14.8902 13.6384 14.8554 13.562 14.8064 13.4949C14.7574 13.4277 14.6953 13.3713 14.6237 13.329L11.5621 11.2451Z" fill="#4B5563"/>
<path d="M4.89164 10.9629C4.88606 9.8635 5.17893 8.78322 5.73903 7.83722C6.29914 6.89122 7.10547 6.11496 8.07207 5.5912C9.03867 5.06744 10.1293 4.81583 11.2277 4.86318C12.326 4.91053 13.3909 5.25508 14.3089 5.86008L14.8283 5.02897C13.9564 4.45783 12.9688 4.08688 11.9365 3.94278C10.9042 3.79868 9.85277 3.885 8.85778 4.19554C7.86279 4.50608 6.94893 5.03313 6.18184 5.73884C5.41476 6.44454 4.81349 7.31138 4.42123 8.27707C4.02897 9.24277 3.85547 10.2834 3.91317 11.3241C3.97087 12.3648 4.25835 13.3798 4.75497 14.2963C5.25158 15.2127 5.94499 16.0077 6.78539 16.6243C7.62579 17.2409 8.59231 17.6637 9.61553 17.8623L9.78053 16.9273C8.4043 16.6464 7.16685 15.9 6.27643 14.8137C5.38601 13.7273 4.89698 12.3675 4.89164 10.9629Z" fill="#4B5563"/>
</g>
<defs>
<clipPath id="clip0_388_5498">
<rect width="22" height="22" fill="white"/>
</clipPath>
</defs>
</svg>
