<svg width="22" height="22" viewBox="0 0 22 22" fill="none" xmlns="http://www.w3.org/2000/svg">
<path d="M1.83594 9.16755L10.1849 2.57672C10.4179 2.39293 10.7059 2.29297 11.0026 2.29297C11.2993 2.29297 11.5873 2.39293 11.8203 2.57672L15.1276 5.18738V3.66755C15.1276 3.42443 15.2242 3.19128 15.3961 3.01937C15.568 2.84746 15.8012 2.75088 16.0443 2.75088H16.9609C17.204 2.75088 17.4372 2.84746 17.6091 3.01937C17.781 3.19128 17.8776 3.42443 17.8776 3.66755V7.35805L20.1693 9.16755M18.3359 10.5425V14.2092C18.3359 16.8016 18.3359 18.0986 17.5302 18.9035C16.7254 19.7092 15.4283 19.7092 12.8359 19.7092H9.16927C6.57694 19.7092 5.27985 19.7092 4.47502 18.9035C3.66927 18.0986 3.66927 16.8016 3.66927 14.2092V10.5425" stroke="#392B20" stroke-width="1.15789" stroke-linecap="round" stroke-linejoin="round"/>
<path d="M13.7539 14.209C13.0206 14.7792 12.0581 15.1257 11.0039 15.1257C9.94974 15.1257 8.98724 14.7792 8.25391 14.209" stroke="#392B20" stroke-width="1.15789" stroke-linecap="round" stroke-linejoin="round"/>
</svg>
