<svg width="24" height="24" viewBox="0 0 24 24" fill="none" xmlns="http://www.w3.org/2000/svg">
<mask id="mask0_388_3479" style="mask-type:luminance" maskUnits="userSpaceOnUse" x="-1" y="-1" width="25" height="25">
<path d="M-0.5 -0.5H23.5V23.5H-0.5V-0.5Z" fill="white"/>
</mask>
<g mask="url(#mask0_388_3479)">
<path fill-rule="evenodd" clip-rule="evenodd" d="M22.0107 3.63618C22.0107 2.90499 21.7522 2.28088 21.2352 1.76383C20.7181 1.24682 20.094 0.988281 19.3628 0.988281C18.6316 0.988281 18.0075 1.24679 17.4905 1.7638C17.481 1.77331 17.4717 1.78306 17.4627 1.79307L7.56695 12.8139C7.5005 12.8879 7.45075 12.9718 7.41768 13.0656C7.38461 13.1594 7.37074 13.2559 7.37608 13.3552C7.38142 13.4545 7.40556 13.549 7.4485 13.6388C7.49144 13.7284 7.54991 13.8065 7.62392 13.873C7.72503 13.9638 7.84217 14.0227 7.97534 14.0499C8.37273 14.1308 8.74808 14.3468 9.10137 14.6979C9.44537 15.0397 9.64212 15.3838 9.69161 15.7301C9.69858 15.7788 9.71023 15.8264 9.72657 15.8729C9.74292 15.9193 9.76364 15.9638 9.78873 16.0062C9.81382 16.0485 9.84281 16.088 9.87569 16.1247C9.90856 16.1613 9.9447 16.1944 9.9841 16.224C10.0235 16.2536 10.0654 16.279 10.1098 16.3003C10.1542 16.3215 10.2003 16.3383 10.248 16.3506C10.2957 16.3628 10.3441 16.3702 10.3933 16.3729C10.4425 16.3755 10.4914 16.3734 10.5402 16.3665C10.6228 16.3547 10.7012 16.3298 10.7755 16.2918C10.8498 16.2538 10.9159 16.2047 10.9738 16.1447L21.2446 5.49895C21.7553 4.98829 22.0107 4.36737 22.0107 3.63618ZM20.1745 2.82446C20.3986 3.04861 20.5107 3.3192 20.5107 3.63618C20.5107 3.95317 20.3955 4.22693 20.1651 4.45747L10.6884 14.2802C10.5394 14.0522 10.3628 13.8367 10.1587 13.6339C9.91516 13.3919 9.66002 13.1889 9.39327 13.0251L18.5639 2.81189C18.7855 2.59615 19.0518 2.48828 19.3628 2.48828C19.6798 2.48828 19.9504 2.60034 20.1745 2.82446ZM5.96875 14.499C6.41545 14.499 6.84277 14.5864 7.25071 14.7614C7.644 14.93 7.9918 15.1678 8.2941 15.475C8.59559 15.7812 8.82891 16.1331 8.99405 16.5306C9.16468 16.9413 9.25 17.3713 9.25 17.8206C9.25 18.3856 9.14243 18.9266 8.9273 19.4436C8.71931 19.9433 8.42562 20.3859 8.04624 20.7713C7.66605 21.1575 7.22896 21.4566 6.73498 21.6688C6.22244 21.8889 5.68578 21.999 5.125 21.999C4.36743 21.999 3.62965 21.817 2.91168 21.453C2.19349 21.0888 1.60553 20.5984 1.14777 19.9818C1.09979 19.9171 1.06317 19.8466 1.0379 19.7702C1.01263 19.6937 1 19.6152 1 19.5348C1 19.4855 1.0048 19.4367 1.01441 19.3885C1.02402 19.3401 1.03824 19.2932 1.05709 19.2478C1.07594 19.2022 1.09904 19.159 1.1264 19.1181C1.15376 19.0771 1.18485 19.0393 1.21967 19.0045C1.25449 18.9696 1.29238 18.9385 1.33332 18.9112C1.37427 18.8838 1.41749 18.8607 1.46299 18.8419C1.50848 18.823 1.55538 18.8088 1.60368 18.7992C1.65198 18.7896 1.70075 18.7848 1.75 18.7848C1.96728 18.7848 2.17359 18.7003 2.36894 18.5314C2.58131 18.3477 2.6875 18.1108 2.6875 17.8206C2.6875 17.3713 2.77281 16.9413 2.94344 16.5306C3.10859 16.1331 3.34191 15.7812 3.6434 15.475C3.9457 15.1678 4.2935 14.93 4.68679 14.7614C5.09473 14.5864 5.52205 14.499 5.96875 14.499ZM5.96875 15.999C5.47783 15.999 5.05904 16.1751 4.71238 16.5273C4.36246 16.8827 4.1875 17.3138 4.1875 17.8206C4.1875 18.2022 4.10803 18.5579 3.9491 18.8877C3.80568 19.1852 3.60602 19.4446 3.35013 19.666C3.27852 19.7279 3.20417 19.7854 3.12708 19.8386C3.27141 19.9396 3.4257 20.0318 3.58996 20.1151C4.09475 20.371 4.60643 20.499 5.125 20.499C5.48013 20.499 5.81947 20.4295 6.14304 20.2906C6.45669 20.1558 6.73477 19.9653 6.97728 19.719C7.2206 19.4718 7.40899 19.1878 7.54245 18.8672C7.68082 18.5347 7.75 18.1858 7.75 17.8206C7.75 17.3138 7.57504 16.8827 7.22512 16.5273C6.87846 16.1751 6.45967 15.999 5.96875 15.999Z" fill="#4CAF50"/>
</g>
</svg>
