<svg width="24" height="24" viewBox="0 0 24 24" fill="none" xmlns="http://www.w3.org/2000/svg">
<g clip-path="url(#clip0_388_3447)">
<mask id="mask0_388_3447" style="mask-type:luminance" maskUnits="userSpaceOnUse" x="-1" y="-1" width="25" height="25">
<path d="M-0.5 -0.5H23.5V23.5H-0.5V-0.5Z" fill="white"/>
</mask>
<g mask="url(#mask0_388_3447)">
<mask id="mask1_388_3447" style="mask-type:luminance" maskUnits="userSpaceOnUse" x="-1" y="-1" width="25" height="25">
<path d="M-0.5 -0.5H23.5V23.5H-0.5V-0.5Z" fill="white"/>
</mask>
<g mask="url(#mask1_388_3447)">
<path d="M19.75 11.5C19.75 10.3812 19.5339 9.31115 19.1018 8.28982C18.6842 7.30294 18.0946 6.42868 17.333 5.66705C16.5713 4.90542 15.6971 4.31581 14.7102 3.89823C13.6889 3.46608 12.6188 3.25 11.5 3.25C10.3812 3.25 9.31115 3.46608 8.28982 3.89823C7.30294 4.31581 6.42868 4.90542 5.66705 5.66705C4.90542 6.42868 4.31581 7.30294 3.89823 8.28982C3.46608 9.31115 3.25 10.3812 3.25 11.5C3.25 12.6188 3.46608 13.6889 3.89823 14.7102C4.31581 15.6971 4.90542 16.5713 5.66705 17.333C6.42868 18.0946 7.30294 18.6842 8.28982 19.1018C9.31115 19.5339 10.3812 19.75 11.5 19.75C12.6188 19.75 13.6889 19.5339 14.7102 19.1018C15.6971 18.6842 16.5713 18.0946 17.333 17.333C18.0946 16.5713 18.6842 15.6971 19.1018 14.7102C19.5339 13.6889 19.75 12.6188 19.75 11.5ZM21.25 11.5C21.25 12.8217 20.9944 14.0866 20.4832 15.2947C19.9897 16.4612 19.2931 17.4941 18.3936 18.3936C17.4941 19.2931 16.4612 19.9897 15.2947 20.4832C14.0866 20.9944 12.8217 21.25 11.5 21.25C10.1784 21.25 8.91345 20.9944 7.7053 20.4832C6.53886 19.9897 5.50589 19.2931 4.60639 18.3936C3.70689 17.4941 3.01036 16.4612 2.51681 15.2947C2.0056 14.0866 1.75 12.8217 1.75 11.5C1.75 10.1784 2.0056 8.91345 2.51681 7.7053C3.01036 6.53886 3.70689 5.50589 4.60639 4.60639C5.50589 3.70689 6.53886 3.01036 7.7053 2.51681C8.91345 2.0056 10.1784 1.75 11.5 1.75C12.8217 1.75 14.0866 2.0056 15.2947 2.51681C16.4612 3.01036 17.4941 3.70689 18.3936 4.60639C19.2931 5.50589 19.9897 6.53886 20.4832 7.7053C20.9944 8.91345 21.25 10.1784 21.25 11.5Z" fill="#FF5252"/>
<path d="M11.9801 7.24992L12.2491 12.9663L11.5 13.0016L10.7508 12.9664L11.0194 7.24998C11.0131 7.38864 11.0579 7.50763 11.1537 7.60694C11.2495 7.70625 11.3665 7.75524 11.5045 7.75389C11.6405 7.75261 11.7553 7.70252 11.849 7.60361C11.9426 7.50471 11.9863 7.38723 11.9801 7.25117L11.9801 7.24992ZM10.4817 7.31918C10.4686 7.0309 10.5613 6.78197 10.7596 6.5724C10.958 6.36282 11.2014 6.25668 11.4899 6.25396C11.7823 6.25112 12.03 6.35491 12.2331 6.56534C12.4362 6.77577 12.531 7.02745 12.5177 7.32038L12.2492 13.0368C12.247 13.083 12.2406 13.1287 12.23 13.1737C12.2193 13.2187 12.2047 13.2624 12.186 13.3048C12.1673 13.3471 12.1448 13.3874 12.1187 13.4255C12.0925 13.4637 12.0631 13.4992 12.0303 13.5319C11.9976 13.5646 11.9622 13.5941 11.924 13.6202C11.8858 13.6464 11.8455 13.6688 11.8032 13.6875C11.7609 13.7063 11.7172 13.7209 11.6722 13.7316C11.6271 13.7422 11.5815 13.7486 11.5352 13.7508C11.486 13.7531 11.4371 13.7506 11.3884 13.7432C11.3397 13.7359 11.2922 13.7239 11.2459 13.7072C11.1995 13.6905 11.1553 13.6695 11.1131 13.6441C11.0709 13.6187 11.0316 13.5894 10.9952 13.5563C10.9587 13.5231 10.9259 13.4867 10.8967 13.4471C10.8674 13.4075 10.8423 13.3654 10.8213 13.3209C10.8004 13.2763 10.7839 13.2301 10.7721 13.1823C10.7602 13.1345 10.7531 13.086 10.7508 13.0368L10.4817 7.32044L10.4817 7.31918Z" fill="#FF5252"/>
<path d="M11.5 16.7461C11.2411 16.7461 11.0201 16.6546 10.8371 16.4715C10.654 16.2884 10.5625 16.0675 10.5625 15.8086C10.5625 15.5497 10.654 15.3287 10.8371 15.1457C11.0201 14.9626 11.2411 14.8711 11.5 14.8711C11.7589 14.8711 11.9798 14.9626 12.1629 15.1457C12.346 15.3287 12.4375 15.5497 12.4375 15.8086C12.4375 16.0675 12.346 16.2884 12.1629 16.4715C11.9798 16.6546 11.7589 16.7461 11.5 16.7461Z" fill="#FF5252"/>
</g>
</g>
</g>
<defs>
<clipPath id="clip0_388_3447">
<rect width="24" height="24" fill="white"/>
</clipPath>
</defs>
</svg>
