<svg width="24" height="24" viewBox="0 0 24 24" fill="none" xmlns="http://www.w3.org/2000/svg">
<mask id="mask0_388_3439" style="mask-type:luminance" maskUnits="userSpaceOnUse" x="-1" y="-1" width="25" height="25">
<path d="M-0.5 -0.5H23.5V23.5H-0.5V-0.5Z" fill="white"/>
</mask>
<g mask="url(#mask0_388_3439)">
<path d="M11.5 3.25C10.3812 3.25 9.31115 3.46608 8.28982 3.89823C7.30294 4.31581 6.42868 4.90542 5.66705 5.66705C4.90542 6.42868 4.31581 7.30294 3.89823 8.28982C3.46608 9.31115 3.25 10.3812 3.25 11.5C3.25 12.6188 3.46608 13.6889 3.89823 14.7102C4.3158 15.697 4.90541 16.5713 5.66705 17.333C6.42868 18.0946 7.30294 18.6842 8.28982 19.1018C9.31115 19.5339 10.3812 19.75 11.5 19.75C12.6188 19.75 13.6889 19.5339 14.7102 19.1018C15.697 18.6842 16.5713 18.0946 17.333 17.333C18.0946 16.5713 18.6842 15.697 19.1018 14.7102C19.5339 13.6889 19.75 12.6188 19.75 11.5C19.75 10.3812 19.5339 9.31115 19.1018 8.28982C18.6842 7.30294 18.0946 6.42868 17.333 5.66705C16.5713 4.90541 15.697 4.3158 14.7102 3.89823C13.6889 3.46608 12.6188 3.25 11.5 3.25ZM11.5 1.75C12.8216 1.75 14.0866 2.0056 15.2948 2.51681C16.4612 3.01036 17.4941 3.70689 18.3936 4.60638C19.2931 5.50589 19.9896 6.53886 20.4832 7.7053C20.9944 8.91345 21.25 10.1784 21.25 11.5C21.25 12.8216 20.9944 14.0866 20.4832 15.2948C19.9897 16.4612 19.2932 17.4941 18.3936 18.3936C17.4941 19.2932 16.4612 19.9897 15.2948 20.4832C14.0866 20.9944 12.8216 21.25 11.5 21.25C10.1784 21.25 8.91345 20.9944 7.7053 20.4832C6.53886 19.9897 5.50589 19.2932 4.60638 18.3936C3.70689 17.4941 3.01036 16.4612 2.51681 15.2948C2.0056 14.0866 1.75 12.8216 1.75 11.5C1.75 10.1784 2.0056 8.91345 2.51681 7.7053C3.01036 6.53886 3.70689 5.50589 4.60638 4.60638C5.50589 3.70689 6.53886 3.01036 7.7053 2.51681C8.91345 2.0056 10.1784 1.75 11.5 1.75Z" fill="#4A90E2"/>
<path fill-rule="evenodd" clip-rule="evenodd" d="M11.5 4.75C11.0858 4.75 10.75 5.08579 10.75 5.5V12.25C10.75 12.2992 10.7548 12.348 10.7644 12.3963C10.774 12.4446 10.7882 12.4915 10.8071 12.537C10.8259 12.5825 10.849 12.6257 10.8764 12.6667C10.9038 12.7076 10.9348 12.7455 10.9697 12.7803C11.0045 12.8152 11.0424 12.8462 11.0833 12.8736C11.1243 12.901 11.1675 12.9241 11.213 12.9429C11.2585 12.9618 11.3054 12.976 11.3537 12.9856C11.402 12.9952 11.4508 13 11.5 13H16C16.4142 13 16.75 12.6642 16.75 12.25C16.75 11.8358 16.4142 11.5 16 11.5H12.25V5.5C12.25 5.08579 11.9142 4.75 11.5 4.75Z" fill="#4A90E2"/>
</g>
</svg>
