<svg width="24" height="24" viewBox="0 0 24 24" fill="none" xmlns="http://www.w3.org/2000/svg">
<g clip-path="url(#clip0_388_3486)">
<mask id="mask0_388_3486" style="mask-type:luminance" maskUnits="userSpaceOnUse" x="-1" y="-1" width="25" height="25">
<path d="M-0.5 -0.5H23.5V23.5H-0.5V-0.5Z" fill="white"/>
</mask>
<g mask="url(#mask0_388_3486)">
<mask id="mask1_388_3486" style="mask-type:luminance" maskUnits="userSpaceOnUse" x="-1" y="-1" width="25" height="25">
<path d="M-0.5 -0.5H23.5V23.5H-0.5V-0.5Z" fill="white"/>
</mask>
<g mask="url(#mask1_388_3486)">
<path fill-rule="evenodd" clip-rule="evenodd" d="M8.52423 9.4375C8.13907 9.43739 7.76512 9.3326 7.40358 9.12315C7.08338 8.93765 6.79238 8.68078 6.53059 8.35254C6.01672 7.70824 5.69229 6.92057 5.5573 5.98953C5.48724 5.50582 5.47997 5.03277 5.53548 4.57036C5.59063 4.11095 5.70407 3.69096 5.87579 3.31039C6.05959 2.90302 6.2974 2.56898 6.58922 2.30825C6.92184 2.01107 7.29466 1.83251 7.7077 1.77255C7.75744 1.765 7.8074 1.75935 7.85757 1.75558C7.90773 1.75182 7.95777 1.74996 8.00768 1.75C8.39285 1.75 8.76615 1.85442 9.12758 2.06326C9.44806 2.24843 9.73922 2.50497 10.0011 2.83287C10.5152 3.47681 10.8398 4.26518 10.9746 5.19797C11.0447 5.68168 11.052 6.15473 10.9964 6.61714C10.9413 7.07655 10.8278 7.49654 10.6561 7.87711C10.4723 8.28448 10.2345 8.61852 9.94269 8.87925C9.61007 9.17642 9.23725 9.35499 8.82421 9.41496C8.77448 9.4225 8.72452 9.42815 8.67436 9.43192C8.62438 9.43567 8.57434 9.43753 8.52423 9.4375ZM17.4419 5.98953C17.5119 5.506 17.5193 5.0326 17.4638 4.57036C17.4086 4.11095 17.2952 3.69096 17.1235 3.31039C16.9396 2.90302 16.7018 2.56898 16.41 2.30825C16.0774 2.01107 15.703 1.83227 15.2868 1.77185C15.2402 1.76477 15.1918 1.75935 15.1417 1.75558C15.0915 1.75182 15.0413 1.74996 14.991 1.75C14.6061 1.75 14.233 1.85446 13.8717 2.06337C13.5514 2.24858 13.2605 2.50518 12.9988 2.83317C12.4854 3.47676 12.1611 4.26502 12.026 5.19795C11.9559 5.68168 11.9487 6.15474 12.0042 6.61714C12.0593 7.07655 12.1728 7.49654 12.3445 7.87711C12.5283 8.28448 12.7661 8.61852 13.058 8.87925C13.3906 9.17642 13.765 9.35522 14.1811 9.41565C14.2277 9.42273 14.2761 9.42815 14.3263 9.43192C14.3765 9.43568 14.4267 9.43754 14.477 9.4375C14.862 9.4375 15.2354 9.33271 15.5971 9.12313C15.9173 8.9376 16.2083 8.68069 16.47 8.35241C16.9837 7.70798 17.3077 6.92035 17.4419 5.98953ZM15.7562 3.92731C15.9928 4.45162 16.0599 5.06737 15.9574 5.77454C15.8619 6.43703 15.6418 6.98497 15.2971 7.41736C15.0206 7.76412 14.7469 7.9375 14.4758 7.9375C14.4633 7.93751 14.4509 7.93705 14.4385 7.93612C14.4261 7.93519 14.4122 7.93355 14.3967 7.93122C14.1241 7.89164 13.8958 7.66796 13.7118 7.26019C13.4752 6.73588 13.4081 6.12014 13.5105 5.41299C13.6068 4.74836 13.8272 4.20022 14.1715 3.76855C14.4472 3.42285 14.7208 3.25 14.9922 3.25C15.0047 3.24999 15.0171 3.25045 15.0295 3.25138C15.0419 3.25231 15.0558 3.25395 15.0713 3.25628C15.3439 3.29586 15.5722 3.51954 15.7562 3.92731ZM8.52485 7.9375C8.5373 7.93751 8.54974 7.93705 8.56215 7.93612C8.57457 7.93519 8.58694 7.93379 8.59926 7.93192C8.87501 7.89187 9.10488 7.66796 9.28887 7.26019C9.52544 6.73588 9.59252 6.12014 9.4901 5.41297C9.39406 4.74865 9.17366 4.20061 8.82889 3.76885C8.55269 3.42295 8.27896 3.25 8.00768 3.25C7.99482 3.24999 7.98218 3.25045 7.96976 3.25138C7.95733 3.25232 7.94496 3.25371 7.93265 3.25558C7.6569 3.29563 7.42703 3.51954 7.24305 3.92731C7.00647 4.45162 6.93939 5.06737 7.04181 5.77454C7.13789 6.43723 7.35838 6.9848 7.70328 7.41723C7.97991 7.76408 8.25418 7.9375 8.52485 7.9375ZM4.73305 13.9744C4.60575 14.0245 4.47489 14.0623 4.34046 14.0876C4.20601 14.1129 4.07107 14.1254 3.93565 14.125C3.27104 14.125 2.62944 13.8603 2.01085 13.331C1.43331 12.8369 0.98301 12.2014 0.659945 11.4245C0.470305 10.9688 0.34614 10.508 0.28745 10.0418C0.229113 9.57849 0.238931 9.13936 0.316902 8.72442C0.400249 8.28087 0.555529 7.89605 0.782744 7.56994C1.03985 7.20092 1.36814 6.93613 1.76761 6.77558C1.8949 6.72546 2.02577 6.68774 2.16022 6.66242C2.29466 6.6371 2.42959 6.62463 2.56502 6.625C3.22962 6.625 3.87122 6.88966 4.48982 7.41897C5.06735 7.91316 5.51765 8.54868 5.84072 9.32555C6.03036 9.78116 6.15452 10.242 6.21321 10.7082C6.27155 11.1715 6.26173 11.6106 6.18376 12.0256C6.10041 12.4691 5.94513 12.854 5.71792 13.1801C5.46081 13.5491 5.13418 13.8132 4.73802 13.9724L4.73305 13.9744ZM21.2371 6.77775C21.6322 6.93687 21.9582 7.20066 22.2152 7.56913C22.4424 7.89481 22.5981 8.27912 22.6822 8.72206C22.761 9.13687 22.7718 9.57588 22.7147 10.0391C22.6572 10.5055 22.5339 10.9673 22.3449 11.4244C22.0215 12.2015 21.5708 12.8372 20.9927 13.3313C20.3736 13.8604 19.7322 14.125 19.0685 14.125C18.9317 14.1254 18.7961 14.1129 18.6616 14.0876C18.5271 14.0623 18.3948 14.024 18.2646 13.9727C17.8681 13.8137 17.5411 13.5498 17.2837 13.1811C17.056 12.8551 16.9005 12.4703 16.817 12.0267C16.7389 11.6117 16.729 11.1725 16.7875 10.7089C16.8462 10.2427 16.9705 9.78172 17.1602 9.32599C17.4807 8.5545 17.9268 7.92233 18.4982 7.42949C19.1086 6.90304 19.7475 6.63487 20.415 6.625H20.4317C20.5686 6.62463 20.7043 6.63709 20.8387 6.6624C20.9732 6.6877 21.1041 6.7254 21.2314 6.77549L21.2371 6.77775ZM20.6795 8.17027C20.6412 8.15538 20.6018 8.14414 20.5613 8.13653C20.5198 8.12872 20.478 8.12488 20.4358 8.125H20.415C20.1256 8.12936 19.8132 8.27616 19.4778 8.56539C19.0858 8.90347 18.775 9.34884 18.5454 9.90151C18.269 10.5655 18.1842 11.1814 18.2911 11.7492C18.375 12.1948 18.5522 12.4719 18.8229 12.5804C18.8591 12.5947 18.8979 12.6057 18.9392 12.6135C18.9806 12.6213 19.0223 12.6251 19.0644 12.625C19.3617 12.625 19.6796 12.4804 20.018 12.1911C20.4145 11.8522 20.7285 11.4045 20.9601 10.8481C21.2338 10.186 21.3166 9.57064 21.2086 9.00204C21.1241 8.55698 20.9477 8.27972 20.6795 8.17027ZM4.18107 12.5797C4.44982 12.4704 4.62598 12.1933 4.70956 11.7486C4.81634 11.1803 4.73178 10.5648 4.45589 9.90195C4.22441 9.34534 3.91065 8.89758 3.5146 8.55868C3.17671 8.26956 2.86018 8.125 2.56502 8.125C2.52157 8.12489 2.47919 8.12872 2.43785 8.1365C2.3965 8.14429 2.35626 8.15589 2.31712 8.1713C2.05028 8.27857 1.87494 8.55529 1.7911 9.00144C1.68433 9.56967 1.76888 10.1852 2.04478 10.8481C2.27625 11.4047 2.59001 11.8524 2.98607 12.1913C3.32395 12.4804 3.64048 12.625 3.93565 12.625C3.97909 12.6251 4.02148 12.6213 4.06282 12.6135C4.10329 12.6059 4.1427 12.5946 4.18107 12.5797ZM15.4989 13.3385L15.4984 13.3376C15.1139 12.6996 14.8184 12.2291 14.6117 11.926C14.3124 11.4869 14.0318 11.1409 13.7701 10.8878C13.4518 10.58 13.1092 10.3547 12.7424 10.2119C12.3793 10.0706 11.9653 10 11.5003 10C11.0353 10 10.6209 10.071 10.2571 10.2129C9.89019 10.3559 9.54735 10.5815 9.22851 10.8894C8.96628 11.1427 8.68526 11.4887 8.38544 11.9275C8.17824 12.2307 7.88224 12.7008 7.49744 13.3378C7.2996 13.665 7.02681 13.967 6.67905 14.2438C6.45662 14.4209 6.09879 14.6576 5.60553 14.9541C5.05915 15.2825 4.66612 15.5485 4.42647 15.752C3.98502 16.127 3.67789 16.5517 3.50505 17.026C3.43235 17.2109 3.37773 17.4011 3.34119 17.5965C3.30387 17.796 3.2861 17.9973 3.28786 18.2003C3.28784 18.605 3.36267 18.9948 3.51237 19.3698C3.65783 19.7342 3.86367 20.0575 4.12987 20.3396C4.39889 20.6247 4.70891 20.8459 5.05991 21.0032C5.42683 21.1677 5.81114 21.25 6.21284 21.25C6.59294 21.25 7.03834 21.185 7.54905 21.0551C7.83656 20.982 8.27598 20.8491 8.86732 20.6566C9.49164 20.4533 9.95607 20.3139 10.2606 20.2385C10.7412 20.1194 11.156 20.0598 11.505 20.0598C11.8539 20.0598 12.268 20.1193 12.7475 20.2384C13.0514 20.3138 13.5146 20.4531 14.1372 20.6564C14.7271 20.849 15.1655 20.9819 15.4526 21.055C15.9625 21.185 16.4076 21.25 16.7878 21.25C17.1896 21.25 17.5738 21.1677 17.9404 21.0032C18.2911 20.8457 18.6007 20.6243 18.8692 20.339C19.1346 20.0569 19.3398 19.7336 19.4847 19.3691C19.6336 18.9944 19.7081 18.6026 19.7081 18.1937C19.7088 17.9924 19.6901 17.7921 19.6517 17.5926C19.6143 17.398 19.559 17.2087 19.4858 17.0246C19.3127 16.5493 19.0058 16.1242 18.5649 15.7491C18.3251 15.5451 17.932 15.2789 17.3855 14.9504C16.8936 14.6548 16.5368 14.4187 16.315 14.2421C15.9686 13.9662 15.6966 13.665 15.4989 13.3385ZM13.3723 12.7709C13.5633 13.051 13.8439 13.4983 14.2142 14.1127L14.2148 14.1137C14.5051 14.5939 14.8937 15.0278 15.3806 15.4155C15.6538 15.633 16.0645 15.9066 16.6128 16.2361C17.0889 16.5223 17.4157 16.7408 17.593 16.8916C17.8347 17.0972 17.9965 17.3147 18.0785 17.544L18.0891 17.5719C18.1288 17.6703 18.1586 17.7716 18.1787 17.8757C18.1987 17.9799 18.2085 18.0859 18.2081 18.1937C18.2081 18.633 18.0643 19.0054 17.7768 19.311C17.5014 19.6037 17.1717 19.75 16.7878 19.75C16.533 19.75 16.2114 19.7005 15.8231 19.6015C15.5681 19.5365 15.1613 19.4128 14.6027 19.2305C13.9458 19.016 13.4478 18.8667 13.1089 18.7826C12.5108 18.6341 11.9761 18.5598 11.505 18.5598C11.034 18.5598 10.499 18.634 9.89989 18.7825C9.5604 18.8666 9.06139 19.0158 8.40287 19.2303C7.84278 19.4127 7.43491 19.5364 7.17926 19.6014C6.78988 19.7005 6.46774 19.75 6.21284 19.75C5.82824 19.75 5.49756 19.6034 5.2208 19.3101C4.93215 19.0042 4.78782 18.63 4.78781 18.1873C4.78689 18.0814 4.79616 17.9764 4.81563 17.8723C4.83509 17.7682 4.86439 17.6669 4.90352 17.5685L4.91248 17.5448C4.99425 17.317 5.15593 17.1005 5.39753 16.8953C5.57495 16.7446 5.90186 16.5261 6.37826 16.2398C6.92779 15.9095 7.33945 15.6353 7.61325 15.4174C8.10121 15.0289 8.49057 14.5943 8.78135 14.1134C9.15167 13.5004 9.43252 13.0539 9.62391 12.7738C9.86619 12.4192 10.0817 12.1507 10.2706 11.9683C10.4451 11.7998 10.6222 11.6805 10.8021 11.6103C10.9907 11.5368 11.2234 11.5 11.5003 11.5C11.7776 11.5 12.0102 11.5366 12.1983 11.6098C12.3775 11.6795 12.5539 11.7983 12.7274 11.9661C12.9157 12.1481 13.1306 12.4164 13.3723 12.7709Z" fill="#4CAF50"/>
</g>
</g>
</g>
<defs>
<clipPath id="clip0_388_3486">
<rect width="24" height="24" fill="white"/>
</clipPath>
</defs>
</svg>
