<svg width="24" height="24" viewBox="0 0 24 24" fill="none" xmlns="http://www.w3.org/2000/svg">
<g clip-path="url(#clip0_388_3498)">
<mask id="mask0_388_3498" style="mask-type:luminance" maskUnits="userSpaceOnUse" x="-1" y="-1" width="25" height="25">
<path d="M-0.5 -0.5H23.5V23.5H-0.5V-0.5Z" fill="white"/>
</mask>
<g mask="url(#mask0_388_3498)">
<mask id="mask1_388_3498" style="mask-type:luminance" maskUnits="userSpaceOnUse" x="-1" y="-1" width="25" height="25">
<path d="M-0.5 -0.5H23.5V23.5H-0.5V-0.5Z" fill="white"/>
</mask>
<g mask="url(#mask1_388_3498)">
<path d="M20.4985 8.66212C20.1039 9.05418 19.6285 9.25021 19.0723 9.25021C18.516 9.25021 18.0406 9.05418 17.646 8.66212L16.5904 7.60607C16.1972 7.21068 16.0006 6.7348 16.0006 6.17844C16.0006 5.62207 16.1968 5.14664 16.5891 4.75215L18.976 2.36521C18.7992 2.54186 18.734 2.75306 18.7803 2.99883C18.8266 3.24462 18.9643 3.41766 19.1934 3.51794C18.5567 3.24533 17.8683 3.17813 17.1282 3.31633C16.3723 3.45749 15.736 3.78462 15.2193 4.29774C14.7682 4.7455 14.4928 5.32167 14.3931 6.02625C14.3 6.68322 14.3607 7.39326 14.5752 8.15637C14.6777 8.52097 14.6775 8.88552 14.5745 9.25004C14.4715 9.61454 14.2808 9.92532 14.0026 10.1824L5.89482 17.7166C5.63985 17.945 5.50779 18.2257 5.49865 18.5587C5.48952 18.8917 5.60276 19.1759 5.83838 19.4114C6.07399 19.6469 6.35829 19.76 6.69127 19.7507C7.02426 19.7413 7.3018 19.6125 7.52389 19.3643L7.52948 19.358L15.136 11.2284C15.389 10.9562 15.6949 10.7685 16.0536 10.6653C16.4124 10.5621 16.7721 10.5588 17.1327 10.6555C17.8901 10.8579 18.594 10.9118 19.2443 10.8174C19.9426 10.7159 20.5153 10.4451 20.9623 10.0047C21.2124 9.7583 21.4223 9.45951 21.592 9.10831C21.7554 8.76995 21.8708 8.40652 21.9381 8.018C22.003 7.64389 22.0176 7.28139 21.9821 6.93049C21.9483 6.59691 21.8731 6.31017 21.7564 6.07027C21.8679 6.29225 22.043 6.42256 22.2819 6.4612C22.5207 6.49983 22.7257 6.4337 22.8969 6.26281L20.5004 8.66031L20.4985 8.66212ZM19.4395 7.59985L21.8373 5.2011C22.0278 5.01102 22.2558 4.93747 22.5214 4.98045C22.7871 5.02341 22.9817 5.16802 23.1053 5.41427C23.2997 5.81394 23.4227 6.26895 23.4744 6.7793C23.5238 7.26664 23.5044 7.76492 23.4161 8.27415C23.3248 8.80071 23.167 9.29624 22.9426 9.76075C22.6977 10.2679 22.3885 10.7054 22.015 11.0733C21.3344 11.7437 20.4827 12.1532 19.4599 12.3018C18.6062 12.4258 17.701 12.36 16.7443 12.1043C16.652 12.0796 16.56 12.0804 16.4683 12.1068C16.3765 12.1332 16.2975 12.1821 16.2313 12.2533L8.63054 20.3767L8.08288 19.8643L8.64187 20.3644C8.13275 20.9335 7.49653 21.2287 6.73319 21.2501C5.96984 21.2714 5.31811 21.0122 4.77799 20.4724C4.23787 19.9325 3.97828 19.2809 3.99922 18.5176C4.02016 17.7542 4.31167 17.1209 4.87375 16.6177L12.9847 9.0806C13.0559 9.01484 13.1047 8.93534 13.131 8.8421C13.1574 8.74885 13.1574 8.65556 13.1312 8.56223C12.8598 7.59662 12.7853 6.68119 12.9079 5.81594C13.0548 4.77862 13.4729 3.91775 14.1624 3.23335C14.8976 2.50334 15.7944 2.03949 16.8529 1.84183C17.8912 1.64793 18.8718 1.74858 19.7948 2.14378C20.0497 2.25531 20.2029 2.44776 20.2544 2.72114C20.3059 2.99448 20.2333 3.2294 20.0367 3.42587L17.6527 5.80988C17.5513 5.91182 17.5006 6.03467 17.5006 6.17844C17.5006 6.3222 17.5508 6.44461 17.6513 6.54565L18.7032 7.59804C18.8053 7.69948 18.9284 7.75021 19.0723 7.75021C19.2162 7.75021 19.3392 7.69948 19.4413 7.59804L19.4395 7.59985Z" fill="#FF9800"/>
<path fill-rule="evenodd" clip-rule="evenodd" d="M8.02237 11.9288L9.47676 13.3499C9.7737 13.6386 10.2485 13.632 10.5373 13.3351C10.8257 13.0386 10.8195 12.5647 10.5238 12.2758L9.07068 10.8559C9.05735 10.8426 9.04891 10.8247 9.04538 10.802C9.04233 10.7824 9.04452 10.7637 9.05196 10.7459C9.05532 10.7406 9.05889 10.7354 9.06269 10.7304C9.06899 10.7221 9.07584 10.7143 9.08325 10.7069L9.81311 9.99526C9.82333 9.98508 9.8316 9.97782 9.83793 9.97347C9.84425 9.96912 9.85091 9.96539 9.85793 9.96228C9.8758 9.95437 9.8947 9.95221 9.91462 9.95582C9.93454 9.95942 9.95174 9.96831 9.9662 9.98247L11.5339 11.5084C11.8306 11.7972 12.3052 11.7909 12.5942 11.4944C12.8832 11.1977 12.8771 10.7229 12.5804 10.4338L11.0156 8.91067C10.7818 8.68171 10.5038 8.53809 10.1818 8.4798C9.85974 8.42151 9.54878 8.45874 9.24888 8.59149C9.15751 8.63209 9.07062 8.6807 8.98823 8.73734C8.90583 8.79398 8.83172 8.85531 8.76589 8.92132L8.02574 9.64311C7.9686 9.69991 7.91571 9.76042 7.86705 9.82464C7.8184 9.88887 7.77446 9.95617 7.73525 10.0266C7.73171 10.0329 7.72827 10.0393 7.72492 10.0458C7.56308 10.3572 7.5092 10.6863 7.56329 11.0331C7.61739 11.3799 7.77041 11.6785 8.02237 11.9288ZM13.8514 13.7035C13.5482 13.4213 13.5311 12.9468 13.8132 12.6435C14.0954 12.3403 14.5699 12.3231 14.8732 12.6053C17.3609 14.9199 19.0694 16.4641 19.9985 17.2379C20.3114 17.4958 20.4774 17.8285 20.4966 18.236C20.5159 18.6435 20.381 18.9912 20.092 19.2792L18.5282 20.8426C18.2362 21.128 17.889 21.2632 17.4867 21.2481C17.0843 21.233 16.7501 21.0744 16.484 20.7723C15.6007 19.7474 14.0566 18.0831 11.8517 15.7795C11.5653 15.4803 11.5757 15.0055 11.875 14.7191C12.1742 14.4327 12.649 14.4431 12.9354 14.7424C15.105 17.0091 16.6413 18.6634 17.5443 19.7052L18.941 18.3089C17.9723 17.4942 16.2758 15.9591 13.8514 13.7035Z" fill="#FF9800"/>
<path d="M-0.211327 8.03391L1.16727 6.68672C1.25973 6.59582 1.36693 6.52623 1.48888 6.47795C1.61084 6.42967 1.73738 6.40703 1.8685 6.41004L1.85129 7.15985L1.84321 6.40989C1.97113 6.40851 2.09456 6.43136 2.2135 6.47845C2.33245 6.52554 2.43808 6.59337 2.53039 6.68194C2.50436 6.65611 2.47036 6.6361 2.42839 6.6219C2.38642 6.60771 2.34347 6.60343 2.29953 6.60908C2.34838 6.60363 2.38472 6.59661 2.40853 6.588L2.41065 6.58773C2.39897 6.59448 2.38665 6.60402 2.37368 6.61635C2.30849 6.67934 2.27161 6.74462 2.26304 6.81218C2.26494 6.79721 2.2625 6.74309 2.25572 6.64982C2.24264 6.46993 2.24115 6.32602 2.25125 6.21807C2.27436 5.97091 2.3526 5.75502 2.48596 5.57039C2.64458 5.35996 2.80724 5.15952 2.97394 4.96906C3.14063 4.7786 3.31402 4.59444 3.49409 4.41657C3.82312 4.09411 4.20012 3.78126 4.62507 3.47803C5.36235 2.95193 6.15985 2.5162 7.01757 2.17084C7.36198 2.03163 7.71686 1.9266 8.0822 1.85574C8.44754 1.78488 8.81629 1.74964 9.18844 1.75C9.75664 1.75 10.307 1.85734 10.8394 2.07201C11.2605 2.24176 11.6005 2.44397 11.8596 2.67866C11.8641 2.68278 11.8686 2.68695 11.8731 2.69118C11.9769 2.78994 12.0762 2.89302 12.1711 3.00041C12.2659 3.1078 12.3559 3.2191 12.4411 3.33431C12.4704 3.37391 12.4955 3.41598 12.5165 3.46053C12.5375 3.50508 12.5539 3.55125 12.5658 3.59904C12.5777 3.64683 12.5849 3.69532 12.5872 3.74451C12.5895 3.7937 12.587 3.84264 12.5797 3.89135C12.5724 3.94005 12.5605 3.98757 12.5438 4.03391C12.5271 4.08025 12.5061 4.12452 12.4807 4.16672C12.4553 4.20892 12.4261 4.24824 12.393 4.28468C12.3599 4.32112 12.3235 4.35398 12.2839 4.38325C12.2339 4.42021 12.1801 4.45049 12.1226 4.47408C12.0651 4.49767 12.0055 4.51385 11.944 4.52264C11.8824 4.53142 11.8207 4.53253 11.7589 4.52597C11.6971 4.51941 11.637 4.50538 11.5786 4.48388C11.5223 4.46315 11.4655 4.44414 11.4081 4.42687C11.3507 4.4096 11.2928 4.3941 11.2344 4.38036L11.4063 3.65031L11.2507 4.38399C11.1325 4.35892 11.0131 4.34259 10.8925 4.33499C10.772 4.3274 10.6515 4.32862 10.5311 4.33866C10.2916 4.35825 10.0335 4.41962 9.75694 4.52278C9.49614 4.62005 9.294 4.72497 9.15052 4.83755C8.92995 5.01211 8.76503 5.22062 8.65578 5.46307C8.54403 5.71107 8.47915 6.01683 8.46116 6.38036C8.45573 6.49303 8.46005 6.58011 8.47411 6.64159C8.49124 6.71646 8.53195 6.80554 8.59622 6.90882C8.77917 7.20279 9.22532 7.70456 9.93467 8.41413C9.94435 8.42381 9.95376 8.43375 9.96289 8.44394C10.1532 8.65637 10.2431 8.90509 10.2325 9.1901C10.2219 9.47511 10.1138 9.71648 9.90832 9.91422L9.06136 10.751C8.85429 10.9541 8.6067 11.057 8.31859 11.0597C8.03049 11.0624 7.78169 10.9649 7.57219 10.7671C7.56697 10.7621 7.56182 10.7571 7.55675 10.7521C6.73723 9.93253 6.08113 9.3732 5.58845 9.07405C5.37861 8.94664 5.19549 8.87446 5.03909 8.85751C4.97208 8.85089 4.9034 8.85503 4.83305 8.86994C4.76269 8.88484 4.69624 8.91004 4.63369 8.94554C4.63688 8.94384 4.64268 8.93981 4.65109 8.93344C4.65948 8.92709 4.66736 8.92015 4.67475 8.91264C4.69426 8.89249 4.70377 8.8703 4.70326 8.84608C4.70275 8.82186 4.69372 8.8014 4.67617 8.78471L4.752 8.85563C4.95422 9.05208 5.05533 9.2865 5.05533 9.55891C5.05533 9.83132 4.95767 10.0625 4.76234 10.2523L3.38638 11.596C3.30013 11.6834 3.196 11.7522 3.074 11.8023C2.952 11.8524 2.82507 11.8766 2.6932 11.8749L2.70255 11.125L2.71 11.875C2.5823 11.8762 2.45908 11.8534 2.34034 11.8063C2.22161 11.7593 2.11614 11.6917 2.02392 11.6034L-0.211002 9.42204C-0.217815 9.41539 -0.224498 9.40861 -0.231053 9.40171C-0.410351 9.21286 -0.5 8.98823 -0.5 8.72782C-0.5 8.46741 -0.410351 8.24277 -0.231053 8.05392C-0.224603 8.04713 -0.218028 8.04046 -0.211327 8.03391ZM0.837043 9.10672L0.312858 8.57031L0.856768 9.08671C0.952256 8.98613 1 8.8665 1 8.72782C1 8.58913 0.952256 8.4695 0.856768 8.36892L0.312857 8.88531L0.836717 8.34859L3.06148 10.5201C3.01223 10.4729 2.95591 10.4368 2.89251 10.4117C2.8291 10.3866 2.76329 10.3744 2.69509 10.375C2.70069 10.375 2.70629 10.375 2.71189 10.3751C2.64001 10.3742 2.57082 10.3874 2.50431 10.4147C2.4378 10.442 2.3825 10.478 2.3384 10.5228L3.71681 9.17674C3.60916 9.28139 3.55533 9.40878 3.55533 9.55891C3.55533 9.70904 3.6126 9.83972 3.72715 9.95093L3.64267 9.87185C3.35816 9.60138 3.2118 9.26991 3.20359 8.87744C3.19538 8.48497 3.32909 8.1463 3.60472 7.86143C3.64857 7.8168 3.69542 7.7756 3.74527 7.73783C3.79514 7.70004 3.84448 7.66777 3.89327 7.64102C4.0906 7.52903 4.30024 7.44952 4.52221 7.4025C4.74418 7.35548 4.97034 7.34339 5.20069 7.36624C5.57823 7.40715 5.96699 7.54904 6.36696 7.79189C6.96258 8.15355 7.71273 8.78672 8.61741 9.69139L8.08708 10.2217L8.60196 9.67638C8.51846 9.59754 8.41929 9.55866 8.30444 9.55975C8.1896 9.56083 8.09051 9.60223 8.00716 9.68396L8.86833 8.83328C8.78285 8.91553 8.73791 9.01592 8.73351 9.13447C8.72911 9.25301 8.76648 9.35646 8.84563 9.44481L9.40426 8.94438L8.87385 9.47463C8.08335 8.68389 7.5663 8.09281 7.3227 7.70138C7.16995 7.45594 7.06635 7.21417 7.01188 6.97607C6.96719 6.7807 6.9509 6.55741 6.96299 6.3062C7.01968 5.16109 7.4402 4.27817 8.22457 3.65745C8.4903 3.44895 8.82637 3.26892 9.23276 3.11734C9.63919 2.96576 10.0304 2.87459 10.4065 2.84385C10.5998 2.82773 10.7932 2.82576 10.9869 2.83796C11.1805 2.85016 11.3722 2.87638 11.5619 2.91664C11.5674 2.91779 11.5728 2.919 11.5781 2.92027C11.6662 2.94099 11.7535 2.96438 11.8401 2.99043C11.9268 3.01649 12.0125 3.04515 12.0974 3.07643L11.838 3.78016L11.2349 4.22601C11.1756 4.14574 11.1129 4.06818 11.0468 3.99335C10.9807 3.91852 10.9115 3.8467 10.8392 3.77788L11.3561 3.23453L10.8527 3.79041C10.7256 3.67538 10.5342 3.5663 10.2785 3.46319C9.92599 3.32107 9.56215 3.25 9.18696 3.25C8.91139 3.24973 8.63833 3.27583 8.3678 3.3283C8.09727 3.38077 7.83394 3.45877 7.57783 3.56229C6.83054 3.86318 6.13672 4.24209 5.49635 4.69904C5.13482 4.95702 4.81876 5.21859 4.54819 5.48375C4.39396 5.63609 4.24545 5.79383 4.10268 5.95696C3.9599 6.12009 3.82632 6.284 3.70194 6.44868C3.72819 6.41233 3.74246 6.38203 3.74473 6.35777C3.74237 6.38296 3.74472 6.44406 3.75177 6.54105C3.76578 6.73376 3.76557 6.88706 3.75112 7.00094C3.71545 7.28217 3.60085 7.51631 3.40734 7.70334C3.17506 7.92423 2.86947 8.0554 2.49056 8.09686C2.30549 8.12063 2.12457 8.10262 1.94781 8.04283C1.77105 7.98305 1.61908 7.89021 1.49189 7.76431C1.54126 7.81168 1.59775 7.84795 1.66136 7.87313C1.72497 7.89832 1.79097 7.91054 1.85938 7.9098C1.85095 7.90989 1.84252 7.90984 1.83409 7.90965C1.90557 7.91129 1.97456 7.89895 2.04105 7.87262C2.10752 7.8463 2.16572 7.8086 2.21564 7.75953L0.837043 9.10672Z" fill="#FF9800"/>
</g>
</g>
</g>
<defs>
<clipPath id="clip0_388_3498">
<rect width="24" height="24" fill="white"/>
</clipPath>
</defs>
</svg>
