<svg width="24" height="24" viewBox="0 0 24 24" fill="none" xmlns="http://www.w3.org/2000/svg">
<g clip-path="url(#clip0_388_3461)">
<mask id="mask0_388_3461" style="mask-type:luminance" maskUnits="userSpaceOnUse" x="-1" y="-1" width="25" height="25">
<path d="M-0.5 -0.5H23.5V23.5H-0.5V-0.5Z" fill="white"/>
</mask>
<g mask="url(#mask0_388_3461)">
<mask id="mask1_388_3461" style="mask-type:luminance" maskUnits="userSpaceOnUse" x="-1" y="-1" width="25" height="25">
<path d="M-0.5 -0.5H23.5V23.5H-0.5V-0.5Z" fill="white"/>
</mask>
<g mask="url(#mask1_388_3461)">
<path fill-rule="evenodd" clip-rule="evenodd" d="M18.3678 4.40362C18.1449 4.05447 18.2473 3.59076 18.5965 3.3679C18.9456 3.14504 19.4093 3.24742 19.6322 3.59656C20.4277 4.84288 21.0057 6.0242 21.3661 7.1405C21.7887 8.44954 22 9.90274 22 11.5001C22 13.1028 21.7888 14.5615 21.3664 15.8762C20.9999 17.0172 20.4205 18.1951 19.6282 19.4098C19.4019 19.7567 18.9372 19.8546 18.5903 19.6283C18.2434 19.402 18.1455 18.9373 18.3718 18.5904C19.0907 17.4881 19.6128 16.4305 19.9383 15.4174C20.3128 14.2518 20.5 12.9461 20.5 11.5001C20.5 10.0602 20.3129 8.76059 19.9386 7.60136C19.6177 6.60744 19.0941 5.54152 18.3678 4.40362ZM5.39462 7.75009L9.67769 4.24338C9.68774 4.23515 9.69799 4.2272 9.70844 4.21951C9.87917 4.09394 10.0701 4.02233 10.2813 4.00468C10.4925 3.98703 10.6927 4.02595 10.8819 4.12144C11.0711 4.21693 11.2213 4.35487 11.3326 4.53526C11.4438 4.71565 11.4996 4.91226 11.5 5.12509V17.8765C11.4996 18.0884 11.4438 18.2846 11.3326 18.4649C11.2213 18.6453 11.0711 18.7833 10.8819 18.8788C10.6927 18.9743 10.4925 19.0132 10.2813 18.9955C10.0701 18.9778 9.87916 18.9062 9.70844 18.7807C9.69799 18.773 9.68774 18.7651 9.67769 18.7568L5.39451 15.25L2.125 15.2501C1.81434 15.2501 1.54917 15.1403 1.3295 14.9206C1.10983 14.7009 1 14.4358 1 14.1251V8.87509C1 8.56443 1.10984 8.29927 1.32951 8.07959C1.54918 7.85993 1.81434 7.75009 2.125 7.75009H5.39462ZM16.1023 6.6282C15.8935 6.27049 16.0142 5.8112 16.3719 5.60238C16.7296 5.39355 17.1889 5.51426 17.3977 5.87198C17.9412 6.80294 18.3312 7.64973 18.5679 8.41235C18.856 9.34078 19 10.37 19 11.5001C19 12.6233 18.8527 13.6552 18.5581 14.5957C18.323 15.3464 17.9371 16.1891 17.4004 17.1236C17.1941 17.4828 16.7357 17.6068 16.3765 17.4005C16.0173 17.1942 15.8933 16.7358 16.0996 16.3766C16.5819 15.5369 16.9242 14.7938 17.1267 14.1474C17.3756 13.3528 17.5 12.4704 17.5 11.5001C17.5 10.5216 17.3784 9.64054 17.1353 8.85689C16.9325 8.20339 16.5882 7.46049 16.1023 6.6282ZM2.5 9.25009H5.40393C5.57625 9.251 5.74347 9.22214 5.9056 9.16351C6.06873 9.10453 6.21363 9.02151 6.34028 8.91446L10 5.91811V17.0821L6.3366 14.0827C6.20185 13.9738 6.05268 13.8908 5.88911 13.8337C5.72554 13.7766 5.55911 13.7487 5.38984 13.7501H2.5V9.25009ZM14.1589 7.83216C13.79 8.02056 13.6437 8.47233 13.8321 8.84122C14.2774 9.7131 14.5 10.5994 14.5 11.5001C14.5 12.3866 14.2766 13.2744 13.8299 14.1633C13.6439 14.5334 13.7931 14.9842 14.1632 15.1702C14.5333 15.3562 14.9841 15.207 15.1701 14.8369C15.7234 13.7361 16 12.6238 16 11.5001C16 10.3588 15.7226 9.24509 15.1679 8.15896C14.9795 7.79008 14.5278 7.64376 14.1589 7.83216Z" fill="#7C4DFF"/>
</g>
</g>
</g>
<defs>
<clipPath id="clip0_388_3461">
<rect width="24" height="24" fill="white"/>
</clipPath>
</defs>
</svg>
