<svg width="22" height="22" viewBox="0 0 22 22" fill="none" xmlns="http://www.w3.org/2000/svg">
<path fill-rule="evenodd" clip-rule="evenodd" d="M11.2277 19.2222C12.282 18.2656 13.2577 17.2258 14.1455 16.1129C16.0155 13.7635 17.153 11.4471 17.2301 9.38732C17.2605 8.55021 17.122 7.71555 16.8226 6.9332C16.5233 6.15085 16.0694 5.43685 15.4879 4.83386C14.9065 4.23087 14.2095 3.75125 13.4385 3.42367C12.6676 3.09609 11.8385 2.92725 11.0008 2.92725C10.1632 2.92725 9.33412 3.09609 8.56317 3.42367C7.79222 3.75125 7.09521 4.23087 6.51376 4.83386C5.93232 5.43685 5.47838 6.15085 5.17906 6.9332C4.87973 7.71555 4.74117 8.55021 4.77164 9.38732C4.84955 11.4471 5.98805 13.7635 7.85713 16.1129C8.74489 17.2258 9.72061 18.2656 10.7749 19.2222C10.8763 19.3139 10.9518 19.3805 11.0013 19.4221L11.2277 19.2222ZM10.3248 20.2902C10.3248 20.2902 3.66797 14.6838 3.66797 9.16732C3.66797 7.2224 4.44059 5.35714 5.81585 3.98187C7.19112 2.6066 9.05638 1.83398 11.0013 1.83398C12.9462 1.83398 14.8115 2.6066 16.1868 3.98187C17.562 5.35714 18.3346 7.2224 18.3346 9.16732C18.3346 14.6838 11.6778 20.2902 11.6778 20.2902C11.3075 20.6312 10.6979 20.6275 10.3248 20.2902ZM11.0013 11.734C11.682 11.734 12.3349 11.4636 12.8162 10.9822C13.2976 10.5009 13.568 9.84804 13.568 9.16732C13.568 8.4866 13.2976 7.83375 12.8162 7.35241C12.3349 6.87107 11.682 6.60065 11.0013 6.60065C10.3206 6.60065 9.66774 6.87107 9.18639 7.35241C8.70505 7.83375 8.43463 8.4866 8.43463 9.16732C8.43463 9.84804 8.70505 10.5009 9.18639 10.9822C9.66774 11.4636 10.3206 11.734 11.0013 11.734ZM11.0013 12.834C10.0288 12.834 9.09621 12.4477 8.40858 11.76C7.72094 11.0724 7.33463 10.1398 7.33463 9.16732C7.33463 8.19486 7.72094 7.26223 8.40858 6.57459C9.09621 5.88696 10.0288 5.50065 11.0013 5.50065C11.9738 5.50065 12.9064 5.88696 13.594 6.57459C14.2817 7.26223 14.668 8.19486 14.668 9.16732C14.668 10.1398 14.2817 11.0724 13.594 11.76C12.9064 12.4477 11.9738 12.834 11.0013 12.834Z" fill="#0D0D0D"/>
</svg>
