<svg width="24" height="24" viewBox="0 0 24 24" fill="none" xmlns="http://www.w3.org/2000/svg">
<path d="M17.4425 9.32859H16.3425V6.39859C16.3425 5.24755 15.8853 4.14366 15.0713 3.32975C14.2574 2.51584 13.1535 2.05859 12.0025 2.05859C10.8515 2.05859 9.74756 2.51584 8.93366 3.32975C8.11975 4.14366 7.6625 5.24755 7.6625 6.39859V9.32859H6.5625C5.89946 9.32859 5.26357 9.59198 4.79473 10.0608C4.32589 10.5297 4.0625 11.1656 4.0625 11.8286V19.4386C4.06435 20.1011 4.32833 20.7359 4.79677 21.2043C5.26521 21.6728 5.90003 21.9367 6.5625 21.9386H17.4425C18.105 21.9367 18.7398 21.6728 19.2082 21.2043C19.6767 20.7359 19.9407 20.1011 19.9425 19.4386V11.8286C19.9425 11.1656 19.6791 10.5297 19.2103 10.0608C18.7414 9.59198 18.1055 9.32859 17.4425 9.32859ZM8.6625 6.39859C8.6625 5.51277 9.01439 4.66323 9.64076 4.03686C10.2671 3.41049 11.1167 3.05859 12.0025 3.05859C12.8883 3.05859 13.7379 3.41049 14.3642 4.03686C14.9906 4.66323 15.3425 5.51277 15.3425 6.39859V9.32859H8.6625V6.39859ZM18.9425 19.4386C18.9399 19.8356 18.781 20.2156 18.5003 20.4964C18.2195 20.7771 17.8395 20.936 17.4425 20.9386H6.5625C6.16548 20.936 5.78547 20.7771 5.50474 20.4964C5.224 20.2156 5.06512 19.8356 5.0625 19.4386V11.8286C5.0625 11.4308 5.22054 11.0492 5.50184 10.7679C5.78314 10.4866 6.16468 10.3286 6.5625 10.3286H17.4425C17.8403 10.3286 18.2219 10.4866 18.5032 10.7679C18.7845 11.0492 18.9425 11.4308 18.9425 11.8286V19.4386Z" fill="#4B5563"/>
<path d="M13 14.9492C13.001 15.1241 12.9552 15.2961 12.8672 15.4474C12.7793 15.5986 12.6525 15.7235 12.5 15.8092V17.3092C12.5 17.4418 12.4473 17.569 12.3536 17.6628C12.2598 17.7565 12.1326 17.8092 12 17.8092C11.8674 17.8092 11.7402 17.7565 11.6465 17.6628C11.5527 17.569 11.5 17.4418 11.5 17.3092V15.8092C11.3475 15.7235 11.2207 15.5986 11.1328 15.4474C11.0449 15.2961 10.999 15.1241 11 14.9492C11 14.684 11.1054 14.4296 11.2929 14.2421C11.4804 14.0546 11.7348 13.9492 12 13.9492C12.2652 13.9492 12.5196 14.0546 12.7071 14.2421C12.8947 14.4296 13 14.684 13 14.9492Z" fill="#4B5563"/>
</svg>
