<svg width="22" height="22" viewBox="0 0 22 22" fill="none" xmlns="http://www.w3.org/2000/svg">
<path d="M1.83203 6.41602L9.31654 11.6552C9.92261 12.0794 10.2257 12.2916 10.5553 12.3737C10.8464 12.4463 11.151 12.4463 11.4421 12.3737C11.7717 12.2916 12.0748 12.0794 12.6809 11.6552L20.1654 6.41602M6.23203 18.3327H15.7654C17.3055 18.3327 18.0756 18.3327 18.6638 18.033C19.1813 17.7693 19.602 17.3486 19.8656 16.8312C20.1654 16.2429 20.1654 15.4728 20.1654 13.9327V8.06602C20.1654 6.52587 20.1654 5.7558 19.8656 5.16754C19.602 4.6501 19.1813 4.2294 18.6638 3.96575C18.0756 3.66602 17.3055 3.66602 15.7654 3.66602H6.23203C4.69189 3.66602 3.92181 3.66602 3.33356 3.96575C2.81611 4.2294 2.39542 4.6501 2.13176 5.16754C1.83203 5.7558 1.83203 6.52587 1.83203 8.06602V13.9327C1.83203 15.4728 1.83203 16.2429 2.13176 16.8312C2.39542 17.3486 2.81611 17.7693 3.33356 18.033C3.92181 18.3327 4.69189 18.3327 6.23203 18.3327Z" stroke="#4B5563" stroke-linecap="round" stroke-linejoin="round"/>
</svg>
