<svg width="22" height="22" viewBox="0 0 22 22" fill="none" xmlns="http://www.w3.org/2000/svg">
<path d="M7.68387 8.11557C8.32187 9.44439 9.19159 10.6898 10.293 11.7913C11.3945 12.8927 12.6399 13.7624 13.9687 14.4004C14.083 14.4553 14.1402 14.4827 14.2125 14.5038C14.4695 14.5787 14.7851 14.5249 15.0027 14.3691C15.0639 14.3252 15.1163 14.2728 15.2211 14.168C15.5416 13.8476 15.7018 13.6873 15.863 13.5826C16.4706 13.1875 17.254 13.1875 17.8616 13.5826C18.0228 13.6873 18.183 13.8476 18.5035 14.1681L18.6821 14.3467C19.1692 14.8338 19.4128 15.0774 19.5451 15.339C19.8083 15.8593 19.8083 16.4737 19.5451 16.994C19.4128 17.2556 19.1692 17.4991 18.6821 17.9863L18.5376 18.1308C18.0521 18.6163 17.8094 18.859 17.4793 19.0444C17.1131 19.2501 16.5443 19.398 16.1243 19.3968C15.7458 19.3957 15.4871 19.3222 14.9697 19.1754C12.189 18.3862 9.56521 16.8971 7.37622 14.7081C5.18724 12.5191 3.69814 9.89526 2.90892 7.11465C2.76206 6.59724 2.68863 6.33853 2.68751 5.96C2.68626 5.53996 2.83417 4.97118 3.03989 4.60497C3.22529 4.27494 3.46803 4.03219 3.95352 3.54671L4.09802 3.40221C4.58517 2.91505 4.82875 2.67147 5.09035 2.53916C5.61061 2.27601 6.22502 2.27601 6.74529 2.53916C7.00689 2.67147 7.25046 2.91505 7.73762 3.40221L7.91625 3.58084C8.23672 3.90131 8.39696 4.06155 8.50172 4.22268C8.8968 4.83032 8.8968 5.61369 8.50172 6.22134C8.39696 6.38247 8.23672 6.54271 7.91625 6.86318C7.81146 6.96796 7.75907 7.02036 7.71522 7.0816C7.55937 7.29925 7.50556 7.61482 7.58048 7.87181C7.60156 7.94412 7.629 8.00127 7.68387 8.11557Z" stroke="#4B5563" stroke-linecap="round" stroke-linejoin="round"/>
</svg>
