<svg width="18" height="18" viewBox="0 0 18 18" fill="none" xmlns="http://www.w3.org/2000/svg">
<path d="M16.8808 15.8662L13.2541 12.1862C14.0363 11.2617 14.543 10.2129 14.7741 9.03952C15.0052 7.86619 14.943 6.70175 14.5875 5.54619C14.2319 4.39063 13.6008 3.40397 12.6941 2.58619C11.7875 1.76841 10.7475 1.2173 9.57412 0.932856C8.40078 0.648411 7.23634 0.666189 6.08078 0.98619C4.92523 1.30619 3.9119 1.90174 3.04078 2.77286C2.16967 3.64397 1.57412 4.6573 1.25412 5.81286C0.934118 6.96841 0.91634 8.13286 1.20078 9.30619C1.48523 10.4795 2.03634 11.5195 2.85412 12.4262C3.6719 13.3329 4.65856 13.964 5.81412 14.3195C6.96967 14.6751 8.13412 14.7373 9.30745 14.5062C10.4808 14.2751 11.5475 13.7684 12.5075 12.9862L16.1341 16.6129C16.2408 16.7195 16.3652 16.764 16.5075 16.7462C16.6497 16.7284 16.7652 16.6751 16.8541 16.5862C16.943 16.4973 16.9963 16.3817 17.0141 16.2395C17.0319 16.0973 16.9875 15.9729 16.8808 15.8662ZM2.10745 7.70619C2.10745 6.63952 2.37412 5.66175 2.90745 4.77286C3.44078 3.88397 4.1519 3.17286 5.04078 2.63952C5.92967 2.10619 6.90745 1.83952 7.97412 1.83952C9.04078 1.83952 10.0186 2.10619 10.9075 2.63952C11.7963 3.17286 12.5075 3.88397 13.0408 4.77286C13.5741 5.66175 13.8408 6.63952 13.8408 7.70619C13.8408 8.77286 13.5741 9.75063 13.0408 10.6395C12.5075 11.5284 11.7963 12.2395 10.9075 12.7729C10.0186 13.3062 9.04078 13.5729 7.97412 13.5729C6.90745 13.5729 5.92967 13.3062 5.04078 12.7729C4.1519 12.2395 3.44078 11.5284 2.90745 10.6395C2.37412 9.75063 2.10745 8.77286 2.10745 7.70619Z" fill="black"/>
</svg>
