<svg width="22" height="22" viewBox="0 0 22 22" fill="none" xmlns="http://www.w3.org/2000/svg">
<path d="M15.5833 12.8333C15.8264 12.8333 16.0596 12.7368 16.2315 12.5648C16.4034 12.3929 16.5 12.1598 16.5 11.9167C16.5 11.6736 16.4034 11.4404 16.2315 11.2685C16.0596 11.0966 15.8264 11 15.5833 11C15.3402 11 15.1071 11.0966 14.9352 11.2685C14.7632 11.4404 14.6667 11.6736 14.6667 11.9167C14.6667 12.1598 14.7632 12.3929 14.9352 12.5648C15.1071 12.7368 15.3402 12.8333 15.5833 12.8333ZM15.5833 16.5C15.8264 16.5 16.0596 16.4034 16.2315 16.2315C16.4034 16.0596 16.5 15.8264 16.5 15.5833C16.5 15.3402 16.4034 15.1071 16.2315 14.9352C16.0596 14.7632 15.8264 14.6667 15.5833 14.6667C15.3402 14.6667 15.1071 14.7632 14.9352 14.9352C14.7632 15.1071 14.6667 15.3402 14.6667 15.5833C14.6667 15.8264 14.7632 16.0596 14.9352 16.2315C15.1071 16.4034 15.3402 16.5 15.5833 16.5ZM11.9167 11.9167C11.9167 12.1598 11.8201 12.3929 11.6482 12.5648C11.4763 12.7368 11.2431 12.8333 11 12.8333C10.7569 12.8333 10.5237 12.7368 10.3518 12.5648C10.1799 12.3929 10.0833 12.1598 10.0833 11.9167C10.0833 11.6736 10.1799 11.4404 10.3518 11.2685C10.5237 11.0966 10.7569 11 11 11C11.2431 11 11.4763 11.0966 11.6482 11.2685C11.8201 11.4404 11.9167 11.6736 11.9167 11.9167ZM11.9167 15.5833C11.9167 15.8264 11.8201 16.0596 11.6482 16.2315C11.4763 16.4034 11.2431 16.5 11 16.5C10.7569 16.5 10.5237 16.4034 10.3518 16.2315C10.1799 16.0596 10.0833 15.8264 10.0833 15.5833C10.0833 15.3402 10.1799 15.1071 10.3518 14.9352C10.5237 14.7632 10.7569 14.6667 11 14.6667C11.2431 14.6667 11.4763 14.7632 11.6482 14.9352C11.8201 15.1071 11.9167 15.3402 11.9167 15.5833ZM6.41667 12.8333C6.65978 12.8333 6.89294 12.7368 7.06485 12.5648C7.23676 12.3929 7.33333 12.1598 7.33333 11.9167C7.33333 11.6736 7.23676 11.4404 7.06485 11.2685C6.89294 11.0966 6.65978 11 6.41667 11C6.17355 11 5.94039 11.0966 5.76849 11.2685C5.59658 11.4404 5.5 11.6736 5.5 11.9167C5.5 12.1598 5.59658 12.3929 5.76849 12.5648C5.94039 12.7368 6.17355 12.8333 6.41667 12.8333ZM6.41667 16.5C6.65978 16.5 6.89294 16.4034 7.06485 16.2315C7.23676 16.0596 7.33333 15.8264 7.33333 15.5833C7.33333 15.3402 7.23676 15.1071 7.06485 14.9352C6.89294 14.7632 6.65978 14.6667 6.41667 14.6667C6.17355 14.6667 5.94039 14.7632 5.76849 14.9352C5.59658 15.1071 5.5 15.3402 5.5 15.5833C5.5 15.8264 5.59658 16.0596 5.76849 16.2315C5.94039 16.4034 6.17355 16.5 6.41667 16.5Z" fill="#6E6F76"/>
<path fill-rule="evenodd" clip-rule="evenodd" d="M6.41835 1.60547C6.60069 1.60547 6.77556 1.6779 6.90449 1.80683C7.03342 1.93576 7.10585 2.11063 7.10585 2.29297V2.99239C7.71269 2.98047 8.38094 2.98047 9.1161 2.98047H12.8864C13.6224 2.98047 14.2907 2.98047 14.8975 2.99239V2.29297C14.8975 2.11063 14.97 1.93576 15.0989 1.80683C15.2278 1.6779 15.4027 1.60547 15.585 1.60547C15.7674 1.60547 15.9422 1.6779 16.0712 1.80683C16.2001 1.93576 16.2725 2.11063 16.2725 2.29297V3.05105C16.5109 3.06939 16.7367 3.09261 16.9499 3.12072C18.0243 3.26555 18.8942 3.56989 19.5808 4.25555C20.2664 4.94214 20.5708 5.81205 20.7156 6.88639C20.8559 7.93139 20.8559 9.26514 20.8559 10.95V12.886C20.8559 14.5708 20.8559 15.9055 20.7156 16.9496C20.5708 18.0239 20.2664 18.8938 19.5808 19.5804C18.8942 20.2661 18.0243 20.5704 16.9499 20.7152C15.9049 20.8555 14.5712 20.8555 12.8864 20.8555H9.11794C7.4331 20.8555 6.09844 20.8555 5.05435 20.7152C3.98002 20.5704 3.1101 20.2661 2.42352 19.5804C1.73785 18.8938 1.43352 18.0239 1.28869 16.9496C1.14844 15.9046 1.14844 14.5708 1.14844 12.886V10.95C1.14844 9.26514 1.14844 7.93047 1.28869 6.88639C1.43352 5.81205 1.73785 4.94214 2.42352 4.25555C3.1101 3.56989 3.98002 3.26555 5.05435 3.12072C5.26824 3.09261 5.49405 3.06939 5.73177 3.05105V2.29297C5.73177 2.11079 5.80408 1.93606 5.93281 1.80716C6.06154 1.67825 6.23618 1.60571 6.41835 1.60547ZM5.23585 4.4838C4.3146 4.60755 3.78294 4.84039 3.39519 5.22814C3.00744 5.61589 2.7746 6.14755 2.65085 7.0688C2.63008 7.22464 2.61235 7.38933 2.59769 7.56289H19.4057C19.391 7.38933 19.3733 7.22433 19.3525 7.06789C19.2288 6.14664 18.9959 5.61497 18.6082 5.22722C18.2204 4.83947 17.6888 4.60664 16.7666 4.48289C15.8252 4.35639 14.5831 4.35455 12.835 4.35455H9.16835C7.42027 4.35455 6.1791 4.3573 5.23585 4.4838ZM2.52252 11.0013C2.52252 10.2185 2.52252 9.53739 2.53444 8.9388H19.4689C19.4809 9.53739 19.4809 10.2185 19.4809 11.0013V12.8346C19.4809 14.5827 19.479 15.8248 19.3525 16.7671C19.2288 17.6884 18.9959 18.2201 18.6082 18.6078C18.2204 18.9956 17.6888 19.2284 16.7666 19.3521C15.8252 19.4786 14.5831 19.4805 12.835 19.4805H9.16835C7.42027 19.4805 6.1791 19.4786 5.23585 19.3521C4.3146 19.2284 3.78294 18.9956 3.39519 18.6078C3.00744 18.2201 2.7746 17.6884 2.65085 16.7662C2.52435 15.8248 2.52252 14.5827 2.52252 12.8346V11.0013Z" fill="#6E6F76"/>
</svg>
