<svg width="22" height="22" viewBox="0 0 22 22" fill="none" xmlns="http://www.w3.org/2000/svg">
<g clip-path="url(#clip0_388_5507)">
<path d="M10.1423 0.0859375C9.18836 0.335155 8.35476 0.988281 7.91219 1.84766C7.59851 2.45352 7.54695 2.67695 7.54265 3.49336L7.53836 4.21523L4.36726 6.51836C2.18875 8.09961 1.1575 8.87305 1.07156 8.99336C0.749294 9.44023 0.684841 10.0418 0.912576 10.5359C1.21765 11.202 2.02117 11.55 2.71726 11.3137L2.96648 11.2277L2.97508 16.1305L2.98797 21.0332L3.08679 21.218C3.24148 21.5102 3.48211 21.7465 3.7614 21.8797L4.01922 22H11.0016H17.9841L18.2419 21.8797C18.5212 21.7465 18.7618 21.5102 18.9165 21.218L19.0153 21.0332L19.0282 16.1305L19.0368 11.2277L19.286 11.3137C19.9821 11.55 20.777 11.2063 21.095 10.5316C21.1895 10.3254 21.2067 10.2309 21.2067 9.9043C21.2067 9.55195 21.1938 9.4875 21.0649 9.22539C20.9747 9.04492 20.8544 8.88164 20.7427 8.78711C20.6438 8.70547 19.1915 7.64414 17.5157 6.42812L14.4649 4.21523L14.4606 3.49336C14.4563 2.67695 14.4048 2.45352 14.0911 1.84766C13.6442 0.979687 12.8106 0.330858 11.8438 0.0859375C11.3841 -0.0300789 10.5977 -0.0300789 10.1423 0.0859375ZM11.6677 0.799219C12.136 0.910936 12.5313 1.14297 12.9352 1.54688C13.5024 2.11406 13.7516 2.69844 13.7516 3.48047C13.7516 4.97578 12.5012 6.23047 11.0016 6.23047C9.98758 6.23047 8.99929 5.62031 8.56101 4.72656C8.32898 4.2582 8.25164 3.93594 8.25164 3.48047C8.25164 2.69844 8.50086 2.10977 9.06804 1.54688C9.79851 0.816406 10.6751 0.562891 11.6677 0.799219ZM7.97664 5.2293C8.07117 5.38828 8.27742 5.65898 8.4364 5.82656L8.72859 6.13594L5.66922 8.35742C3.98914 9.57773 2.56687 10.5961 2.50672 10.6176C2.34344 10.6777 2.09851 10.6648 1.93953 10.5789C1.47117 10.3426 1.36375 9.72812 1.73328 9.38008C1.83211 9.28125 7.77469 4.94141 7.80476 4.94141C7.80906 4.94141 7.8864 5.07031 7.97664 5.2293ZM17.202 7.11992C18.8134 8.28867 20.197 9.30703 20.27 9.38008C20.6395 9.72812 20.5321 10.3426 20.0637 10.5789C19.9048 10.6648 19.6598 10.6777 19.4966 10.6176C19.4364 10.5961 18.0141 9.57773 16.3341 8.35742L13.279 6.13594L13.5669 5.82656C13.7302 5.65898 13.9321 5.38828 14.0266 5.2293C14.1169 5.07031 14.2114 4.9543 14.2329 4.96719C14.2544 4.98438 15.595 5.95117 17.202 7.11992ZM10.3442 6.90078C10.9845 7.02109 11.6762 6.95664 12.3036 6.71172L12.6302 6.58281L15.4704 8.64531L18.3063 10.7078V15.7352C18.3063 21.3684 18.3321 20.9516 17.9927 21.175L17.8165 21.291H11.0016H4.18679L4.01062 21.175C3.67117 20.9516 3.69695 21.3684 3.69695 15.7352V10.7078L6.53289 8.64531L9.37312 6.58281L9.69969 6.71172C9.88015 6.78047 10.168 6.86641 10.3442 6.90078Z" fill="#4B5563"/>
<path d="M12.5039 2.09258C12.4695 2.10547 12.0184 2.53086 11.507 3.04219L10.5703 3.97031L10.0633 3.46758C9.57773 2.98633 9.54336 2.96484 9.37578 2.96484C9.13516 2.96484 9.02344 3.07656 9.02344 3.31719C9.02344 3.49336 9.04063 3.51484 9.70234 4.17656C10.3512 4.82539 10.3855 4.85547 10.5488 4.85547C10.7164 4.85547 10.7508 4.82539 11.8508 3.72539C12.9078 2.66406 12.9766 2.59102 12.9766 2.44492C12.9766 2.35898 12.9422 2.24727 12.9035 2.1957C12.8219 2.10117 12.6156 2.04961 12.5039 2.09258Z" fill="#4B5563"/>
<path d="M6.0268 11.8336C5.61 11.9711 5.37368 12.2934 5.37368 12.7316C5.37368 13.0023 5.45532 13.243 5.60141 13.402C5.72602 13.5352 6.09125 13.707 6.25883 13.707C6.44789 13.707 6.56391 13.8445 6.50805 13.9992C6.46938 14.1109 6.45649 14.1152 6.03969 14.1367C5.60141 14.1625 5.44672 14.2098 5.39946 14.3344C5.3436 14.4762 5.37368 14.6953 5.45961 14.7812C5.53696 14.8586 5.60141 14.8672 6.06118 14.8672C6.48657 14.8672 6.60688 14.8543 6.74008 14.7855C7.17836 14.5621 7.35883 14.1023 7.21274 13.6039C7.11391 13.273 6.70571 12.9766 6.35336 12.9766C6.22446 12.9766 6.10414 12.8563 6.10414 12.7273C6.10414 12.5641 6.25883 12.5039 6.68852 12.5039C7.06664 12.5039 7.09243 12.4996 7.17407 12.3922C7.29868 12.2332 7.29008 12.027 7.15258 11.898C7.05375 11.8035 7.00219 11.7949 6.62836 11.7863C6.36625 11.7777 6.14282 11.7992 6.0268 11.8336Z" fill="#4B5563"/>
<path d="M7.92437 11.8333C7.70523 11.9322 7.65797 12.2458 7.83414 12.4091C7.92437 12.4951 7.98023 12.5036 8.41422 12.5036H8.89117L8.90406 13.6036C8.91695 14.6994 8.91695 14.7036 9.02008 14.7853C9.16187 14.9013 9.41539 14.8927 9.5314 14.7681C9.62164 14.6693 9.62593 14.6392 9.62593 13.5865V12.5036H10.1158C10.6744 12.5036 10.7732 12.4607 10.8119 12.1986C10.8334 12.074 10.8162 12.0224 10.7302 11.9193L10.6228 11.7947L9.33804 11.7861C8.32828 11.7775 8.0275 11.7861 7.92437 11.8333Z" fill="#4B5563"/>
<path d="M12.2031 11.8293C12.0527 11.9023 10.8324 14.3 10.8281 14.5277C10.8281 14.7211 10.9699 14.8672 11.1676 14.8672C11.3824 14.8672 11.4598 14.8027 11.623 14.4805L11.7734 14.1797H12.3664H12.9637L13.0668 14.4031C13.2344 14.7684 13.3418 14.8672 13.5566 14.8672C13.707 14.8672 13.7629 14.8457 13.8316 14.7555C13.8832 14.691 13.9219 14.5965 13.9219 14.5406C13.9219 14.4848 13.634 13.8574 13.2816 13.1527C12.6887 11.9754 12.6285 11.8637 12.4996 11.8207C12.332 11.7605 12.3363 11.7605 12.2031 11.8293ZM12.4781 13.2086C12.5383 13.316 12.5898 13.4105 12.5898 13.4234C12.5898 13.4363 12.4953 13.4492 12.375 13.4492C12.259 13.4492 12.1602 13.4406 12.1602 13.4277C12.1602 13.402 12.3449 13.0195 12.3578 13.0195C12.3621 13.0195 12.418 13.1055 12.4781 13.2086Z" fill="#4B5563"/>
<path d="M13.7961 11.8293C13.6543 11.898 13.5641 12.0914 13.6027 12.2375C13.6199 12.3062 13.8648 12.5898 14.1871 12.9121L14.7414 13.475V13.9906C14.7414 14.7211 14.8059 14.8672 15.141 14.8672C15.2355 14.8672 15.3172 14.8328 15.3773 14.7684C15.4633 14.6738 15.4719 14.6266 15.4719 14.0938V13.518L16.052 12.9293C16.5848 12.3879 16.632 12.3277 16.632 12.1816C16.632 12.0957 16.6148 11.9883 16.5891 11.9453C16.5375 11.8508 16.2883 11.7605 16.1766 11.7992C16.1336 11.8164 15.8758 12.0441 15.6137 12.3062L15.1281 12.7832L14.6684 12.3234C14.2687 11.9281 14.0582 11.7734 13.9336 11.7734C13.9164 11.7734 13.8562 11.7992 13.7961 11.8293Z" fill="#4B5563"/>
<path d="M5.45703 15.6829C5.37539 15.7646 5.37109 15.8247 5.37109 17.0106V18.2567L5.48281 18.3427C5.62891 18.4587 5.80078 18.4587 5.94688 18.3427C6.0543 18.2567 6.05859 18.2438 6.05859 17.7626V17.2728H6.44531H6.83203V17.7454C6.83203 18.1923 6.83633 18.2267 6.93945 18.3255C7.11133 18.5017 7.425 18.4415 7.51953 18.2224C7.54961 18.1407 7.5625 17.7239 7.55391 16.9333L7.54102 15.7603L7.43789 15.6786C7.29609 15.5626 7.04258 15.5712 6.92656 15.6958C6.84492 15.7817 6.83203 15.8462 6.83203 16.1685V16.5423H6.44531H6.05859V16.1556C6.05859 15.6958 5.99844 15.597 5.71484 15.597C5.59883 15.597 5.51289 15.6271 5.45703 15.6829Z" fill="#4B5563"/>
<path d="M8.86729 15.6532C8.60947 15.7477 8.36455 15.9626 8.23135 16.2032C8.11533 16.4138 8.10244 16.4782 8.08955 16.9165C8.06807 17.5438 8.13682 17.763 8.44619 18.0724C8.90596 18.5321 9.61494 18.5536 10.0876 18.1196C10.4013 17.8317 10.4872 17.604 10.4872 17.0325C10.4872 16.7017 10.4657 16.4954 10.4142 16.3493C10.3196 16.07 10.0146 15.7649 9.73526 15.6704C9.49463 15.5888 9.06924 15.5802 8.86729 15.6532ZM9.61065 16.4739C9.75674 16.62 9.75674 16.6243 9.75674 17.0024C9.75674 17.4235 9.71377 17.5267 9.49893 17.6384C9.33994 17.72 9.22822 17.72 9.06924 17.6384C8.86299 17.5309 8.80283 17.3591 8.82002 16.9423C8.83291 16.5942 8.83721 16.5727 8.97471 16.4524C9.17666 16.2677 9.41299 16.2763 9.61065 16.4739Z" fill="#4B5563"/>
<path d="M11.8369 15.632C11.7853 15.6406 11.7123 15.6793 11.6736 15.7223C11.635 15.7652 11.4674 16.3023 11.3041 16.9211C10.9818 18.1156 10.9775 18.1758 11.1838 18.3219C11.3127 18.4164 11.4846 18.4078 11.6135 18.3047C11.6951 18.2445 11.7467 18.1242 11.8197 17.8363C11.8756 17.6215 11.9271 17.4539 11.9357 17.4625C11.9443 17.4711 12.0002 17.6473 12.056 17.8578C12.1721 18.2789 12.2623 18.3906 12.4814 18.3906C12.6748 18.3906 12.7994 18.2875 12.851 18.077C12.881 17.9781 12.9326 17.7891 12.967 17.6602L13.0357 17.4238L13.1389 17.8105C13.2119 18.0855 13.2721 18.2273 13.3494 18.2918C13.5771 18.498 13.9252 18.3477 13.9252 18.0469C13.9252 17.7977 13.3795 15.8082 13.285 15.7094C13.2377 15.6621 13.1432 15.632 13.0443 15.632C12.7994 15.632 12.7049 15.7566 12.5932 16.2035C12.5416 16.4184 12.49 16.5859 12.4857 16.5773C12.4771 16.5687 12.4299 16.4012 12.3783 16.1992C12.2494 15.7137 12.1291 15.5891 11.8369 15.632Z" fill="#4B5563"/>
<path d="M14.575 15.6965C14.4805 15.7953 14.4805 15.8211 14.4805 17.0242V18.2574L14.5922 18.3434C14.6996 18.4293 14.7641 18.4336 15.5547 18.4336C16.3453 18.4336 16.4098 18.4293 16.5172 18.3434C16.6074 18.2746 16.6289 18.2188 16.6289 18.0684C16.6289 17.918 16.6074 17.8621 16.5172 17.7934C16.4141 17.7117 16.3453 17.7031 15.8082 17.7031H15.2109V17.5312V17.3594H15.8082C16.3453 17.3594 16.4141 17.3508 16.5172 17.2691C16.6074 17.2004 16.6289 17.1445 16.6289 16.9941C16.6289 16.8438 16.6074 16.7879 16.5172 16.7191C16.4141 16.6375 16.3453 16.6289 15.8082 16.6289H15.2109V16.4785V16.3281H15.7437C16.3023 16.3281 16.5172 16.2852 16.5859 16.1562C16.659 16.0187 16.6375 15.7781 16.543 15.6836C16.4613 15.602 16.4012 15.5977 15.5633 15.5977C14.6824 15.5977 14.6652 15.5977 14.575 15.6965Z" fill="#4B5563"/>
</g>
<defs>
<clipPath id="clip0_388_5507">
<rect width="22" height="22" fill="white"/>
</clipPath>
</defs>
</svg>
