<svg width="22" height="22" viewBox="0 0 22 22" fill="none" xmlns="http://www.w3.org/2000/svg">
<path d="M18.3346 19.25C18.3346 17.9707 18.3346 17.3311 18.1767 16.8106C17.8213 15.6387 16.9042 14.7217 15.7323 14.3662C15.2119 14.2083 14.5722 14.2083 13.293 14.2083H8.70964C7.43037 14.2083 6.79074 14.2083 6.27026 14.3662C5.09839 14.7217 4.18134 15.6387 3.82586 16.8106C3.66797 17.3311 3.66797 17.9707 3.66797 19.25M15.1263 6.875C15.1263 9.15317 13.2795 11 11.0013 11C8.72313 11 6.8763 9.15317 6.8763 6.875C6.8763 4.59683 8.72313 2.75 11.0013 2.75C13.2795 2.75 15.1263 4.59683 15.1263 6.875Z" stroke="#4B5563" stroke-width="0.916667" stroke-linecap="round" stroke-linejoin="round"/>
</svg>
